<?xml version="1.0" encoding="utf-8"?>
<!-- Generator: Adobe Illustrator 16.0.0, SVG Export Plug-In . SVG Version: 6.00 Build 0)  -->
<!DOCTYPE svg PUBLIC "-//W3C//DTD SVG 1.1//EN" "http://www.w3.org/Graphics/SVG/1.1/DTD/svg11.dtd">
<svg version="1.1" id="Layer_1" xmlns="http://www.w3.org/2000/svg" xmlns:xlink="http://www.w3.org/1999/xlink" x="0px" y="0px"
	 width="500px" height="90px" viewBox="0 0 500 90" enable-background="new 0 0 500 90" xml:space="preserve">
<g>
	<defs>
		<path id="SVGID_1_" d="M100.126,39.471L63.521,65.003L26.917,39.471c-1.329-0.926-3.157-0.6-4.084,0.727
			c-0.926,1.329-0.6,3.156,0.729,4.083l38.282,26.701c1.009,0.705,2.345,0.704,3.355,0l38.282-26.701
			c1.329-0.927,1.654-2.754,0.727-4.083c-0.569-0.816-1.481-1.254-2.407-1.255C101.221,38.942,100.636,39.115,100.126,39.471"/>
	</defs>
	<clipPath id="SVGID_2_">
		<use xlink:href="#SVGID_1_"  overflow="visible"/>
	</clipPath>
	
		<linearGradient id="SVGID_3_" gradientUnits="userSpaceOnUse" x1="-748.3599" y1="1057.3867" x2="-747.8767" y2="1057.3867" gradientTransform="matrix(-238.8965 173.6472 173.6472 238.8965 -362267.375 -122645.6563)">
		<stop  offset="0" style="stop-color:#70CDDD"/>
		<stop  offset="1" style="stop-color:#408BCA"/>
	</linearGradient>
	<polygon clip-path="url(#SVGID_2_)" fill="url(#SVGID_3_)" points="120.897,60.23 50.679,111.271 6.145,50.002 76.364,-1.038 	"/>
</g>
<g>
	<defs>
		<path id="SVGID_4_" d="M100.126,54.076L63.521,79.607L26.917,54.076c-1.329-0.927-3.157-0.602-4.084,0.727
			c-0.926,1.328-0.6,3.156,0.729,4.083l38.282,26.701c1.009,0.703,2.345,0.703,3.355,0l38.282-26.701
			c1.329-0.927,1.654-2.755,0.727-4.083c-0.569-0.817-1.481-1.255-2.407-1.255C101.221,53.548,100.636,53.718,100.126,54.076"/>
	</defs>
	<clipPath id="SVGID_5_">
		<use xlink:href="#SVGID_4_"  overflow="visible"/>
	</clipPath>
	
		<linearGradient id="SVGID_6_" gradientUnits="userSpaceOnUse" x1="-748.3608" y1="1057.3438" x2="-747.8777" y2="1057.3438" gradientTransform="matrix(-238.8965 173.6472 173.6472 238.8965 -362253 -122625.6563)">
		<stop  offset="0" style="stop-color:#70CDDD"/>
		<stop  offset="1" style="stop-color:#408BCA"/>
	</linearGradient>
	<polygon clip-path="url(#SVGID_5_)" fill="url(#SVGID_6_)" points="120.897,74.834 50.679,125.874 6.145,64.606 76.364,13.565 	"/>
</g>
<g>
	<defs>
		<path id="SVGID_7_" d="M37.7,19.537l-11.26,8.035c-0.498,0.352-0.616,1.026-0.263,1.525c0.351,0.498,1.055,0.615,1.553,0.264
			l11.261-8.036c0.499-0.351,0.586-1.026,0.233-1.524c-0.214-0.304-0.55-0.467-0.892-0.467C38.115,19.334,37.895,19.4,37.7,19.537"
			/>
	</defs>
	<clipPath id="SVGID_8_">
		<use xlink:href="#SVGID_7_"  overflow="visible"/>
	</clipPath>
	
		<linearGradient id="SVGID_9_" gradientUnits="userSpaceOnUse" x1="-748.3218" y1="1057.4199" x2="-747.8359" y2="1057.4199" gradientTransform="matrix(-238.8965 173.6472 173.6472 238.8965 -362298.3125 -122688.1563)">
		<stop  offset="0" style="stop-color:#70CDDD"/>
		<stop  offset="1" style="stop-color:#408BCA"/>
	</linearGradient>
	<polygon clip-path="url(#SVGID_8_)" fill="url(#SVGID_9_)" points="44.512,26.125 30.579,36.253 20.889,22.922 34.823,12.793 	"/>
</g>
<g>
	<defs>
		<path id="SVGID_10_" d="M72.167,34.122l-11.26,8.034c-0.499,0.352-0.616,1.026-0.264,1.524c0.352,0.499,1.056,0.617,1.524,0.265
			l11.26-8.036c0.499-0.351,0.616-1.024,0.264-1.524c-0.215-0.305-0.55-0.466-0.891-0.466
			C72.581,33.919,72.361,33.984,72.167,34.122"/>
	</defs>
	<clipPath id="SVGID_11_">
		<use xlink:href="#SVGID_10_"  overflow="visible"/>
	</clipPath>
	
		<linearGradient id="SVGID_12_" gradientUnits="userSpaceOnUse" x1="-748.3618" y1="1057.3516" x2="-747.876" y2="1057.3516" gradientTransform="matrix(-238.8965 173.6472 173.6472 238.8965 -362267.5625 -122645.6563)">
		<stop  offset="0" style="stop-color:#70CDDD"/>
		<stop  offset="1" style="stop-color:#408BCA"/>
	</linearGradient>
	<polygon clip-path="url(#SVGID_11_)" fill="url(#SVGID_12_)" points="78.979,40.709 65.045,50.836 55.355,37.506 69.29,27.378 	"/>
</g>
<g>
	<defs>
		<path id="SVGID_13_" d="M71.111,18.14l-22.08,16.01c-0.47,0.352-0.587,1.056-0.235,1.525c0.352,0.499,1.056,0.615,1.554,0.264
			l22.052-16.01c0.499-0.381,0.615-1.056,0.234-1.555c-0.208-0.296-0.532-0.447-0.865-0.447
			C71.544,17.928,71.313,17.998,71.111,18.14"/>
	</defs>
	<clipPath id="SVGID_14_">
		<use xlink:href="#SVGID_13_"  overflow="visible"/>
	</clipPath>
	
		<linearGradient id="SVGID_15_" gradientUnits="userSpaceOnUse" x1="-748.3599" y1="1057.4004" x2="-747.8781" y2="1057.4004" gradientTransform="matrix(-238.8965 173.6472 173.6472 238.8965 -362284 -122668.1563)">
		<stop  offset="0" style="stop-color:#70CDDD"/>
		<stop  offset="1" style="stop-color:#408BCA"/>
	</linearGradient>
	<polygon clip-path="url(#SVGID_14_)" fill="url(#SVGID_15_)" points="81.751,29.942 56.939,47.978 39.71,24.276 64.522,6.241 	"/>
</g>
<g>
	<defs>
		<path id="SVGID_16_" d="M76.888,22.128l-22.08,16.01c-0.468,0.352-0.586,1.055-0.234,1.524c0.352,0.499,1.056,0.617,1.524,0.264
			l22.081-16.01c0.498-0.352,0.586-1.055,0.234-1.554c-0.212-0.286-0.543-0.439-0.883-0.439
			C77.308,21.924,77.084,21.989,76.888,22.128"/>
	</defs>
	<clipPath id="SVGID_17_">
		<use xlink:href="#SVGID_16_"  overflow="visible"/>
	</clipPath>
	
		<linearGradient id="SVGID_18_" gradientUnits="userSpaceOnUse" x1="-748.3599" y1="1057.377" x2="-747.8781" y2="1057.377" gradientTransform="matrix(-238.8965 173.6472 173.6472 238.8965 -362275.9375 -122657.1563)">
		<stop  offset="0" style="stop-color:#70CDDD"/>
		<stop  offset="1" style="stop-color:#408BCA"/>
	</linearGradient>
	<polygon clip-path="url(#SVGID_17_)" fill="url(#SVGID_18_)" points="87.495,33.934 62.706,51.951 45.492,28.268 70.28,10.25 	"/>
</g>
<g>
	<defs>
		<path id="SVGID_19_" d="M37.7,19.537l-11.26,8.035c-0.498,0.352-0.616,1.026-0.263,1.525c0.351,0.498,1.055,0.615,1.553,0.264
			l11.261-8.036c0.499-0.351,0.586-1.026,0.233-1.524c-0.214-0.304-0.55-0.467-0.892-0.467C38.115,19.334,37.895,19.4,37.7,19.537"
			/>
	</defs>
	<clipPath id="SVGID_20_">
		<use xlink:href="#SVGID_19_"  overflow="visible"/>
	</clipPath>
	
		<linearGradient id="SVGID_21_" gradientUnits="userSpaceOnUse" x1="-748.3218" y1="1057.4199" x2="-747.8359" y2="1057.4199" gradientTransform="matrix(-238.8965 173.6472 173.6472 238.8965 -362298.3125 -122688.1563)">
		<stop  offset="0" style="stop-color:#70CDDD"/>
		<stop  offset="1" style="stop-color:#408BCA"/>
	</linearGradient>
	<polygon clip-path="url(#SVGID_20_)" fill="url(#SVGID_21_)" points="44.512,26.125 30.579,36.253 20.889,22.922 34.823,12.793 	
		"/>
</g>
<g>
	<defs>
		<path id="SVGID_22_" d="M71.111,18.14l-22.08,16.01c-0.47,0.352-0.587,1.056-0.235,1.525c0.352,0.499,1.056,0.615,1.554,0.264
			l22.052-16.01c0.499-0.381,0.615-1.056,0.234-1.555c-0.208-0.296-0.532-0.447-0.865-0.447
			C71.544,17.928,71.313,17.998,71.111,18.14"/>
	</defs>
	<clipPath id="SVGID_23_">
		<use xlink:href="#SVGID_22_"  overflow="visible"/>
	</clipPath>
	
		<linearGradient id="SVGID_24_" gradientUnits="userSpaceOnUse" x1="-748.3599" y1="1057.4004" x2="-747.8781" y2="1057.4004" gradientTransform="matrix(-238.8965 173.6472 173.6472 238.8965 -362284 -122668.1563)">
		<stop  offset="0" style="stop-color:#70CDDD"/>
		<stop  offset="1" style="stop-color:#408BCA"/>
	</linearGradient>
	<polygon clip-path="url(#SVGID_23_)" fill="url(#SVGID_24_)" points="81.751,29.942 56.939,47.978 39.71,24.276 64.522,6.241 	"/>
</g>
<g>
	<defs>
		<path id="SVGID_25_" d="M72.167,34.122l-11.26,8.034c-0.499,0.352-0.616,1.026-0.264,1.524c0.352,0.499,1.056,0.617,1.524,0.265
			l11.26-8.036c0.499-0.351,0.616-1.024,0.264-1.524c-0.215-0.305-0.55-0.466-0.891-0.466
			C72.581,33.919,72.361,33.984,72.167,34.122"/>
	</defs>
	<clipPath id="SVGID_26_">
		<use xlink:href="#SVGID_25_"  overflow="visible"/>
	</clipPath>
	
		<linearGradient id="SVGID_27_" gradientUnits="userSpaceOnUse" x1="-748.3618" y1="1057.3516" x2="-747.876" y2="1057.3516" gradientTransform="matrix(-238.8965 173.6472 173.6472 238.8965 -362267.5625 -122645.6563)">
		<stop  offset="0" style="stop-color:#70CDDD"/>
		<stop  offset="1" style="stop-color:#408BCA"/>
	</linearGradient>
	<polygon clip-path="url(#SVGID_26_)" fill="url(#SVGID_27_)" points="78.979,40.709 65.045,50.836 55.355,37.506 69.29,27.378 	"/>
</g>
<g>
	<defs>
		<path id="SVGID_28_" d="M76.888,22.128l-22.08,16.01c-0.468,0.352-0.586,1.055-0.234,1.524c0.352,0.499,1.056,0.617,1.524,0.264
			l22.081-16.01c0.498-0.352,0.586-1.055,0.234-1.554c-0.212-0.286-0.543-0.439-0.883-0.439
			C77.308,21.924,77.084,21.989,76.888,22.128"/>
	</defs>
	<clipPath id="SVGID_29_">
		<use xlink:href="#SVGID_28_"  overflow="visible"/>
	</clipPath>
	
		<linearGradient id="SVGID_30_" gradientUnits="userSpaceOnUse" x1="-748.3599" y1="1057.377" x2="-747.8781" y2="1057.377" gradientTransform="matrix(-238.8965 173.6472 173.6472 238.8965 -362275.9375 -122657.1563)">
		<stop  offset="0" style="stop-color:#70CDDD"/>
		<stop  offset="1" style="stop-color:#408BCA"/>
	</linearGradient>
	<polygon clip-path="url(#SVGID_29_)" fill="url(#SVGID_30_)" points="87.495,33.934 62.706,51.951 45.492,28.268 70.28,10.25 	"/>
</g>
<g>
	<defs>
		<path id="SVGID_31_" d="M65.187,17.994l9.267-6.451L96.68,27.025L63.517,50.16L30.353,27.025l22.226-15.482l9.266,6.451
			c0.499,0.352,1.085,0.527,1.671,0.527C64.104,18.521,64.689,18.346,65.187,17.994 M52.579,5.033c-0.292,0-0.615,0.059-0.909,0.147
			c-0.117,0.029-0.234,0.116-0.381,0.176c-0.117,0.059-0.264,0.118-0.381,0.205l-0.059,0.03L23.55,24.621
			c-0.763,0.557-1.232,1.438-1.232,2.405c0,0.966,0.469,1.847,1.232,2.404l38.294,26.713c0.997,0.703,2.347,0.703,3.342,0
			l38.297-26.713c0.792-0.557,1.26-1.438,1.26-2.404c0-0.967-0.469-1.848-1.26-2.405L76.213,5.59h-0.03l-0.057-0.03
			c-0.118-0.087-0.264-0.146-0.382-0.205c-0.117-0.06-0.234-0.146-0.381-0.176c-0.292-0.088-0.586-0.147-0.909-0.147H52.579z"/>
	</defs>
	<clipPath id="SVGID_32_">
		<use xlink:href="#SVGID_31_"  overflow="visible"/>
	</clipPath>
	
		<linearGradient id="SVGID_33_" gradientUnits="userSpaceOnUse" x1="-748.3604" y1="1057.4043" x2="-747.8768" y2="1057.4043" gradientTransform="matrix(-238.8965 173.6472 173.6472 238.8965 -362282 -122665.6563)">
		<stop  offset="0" style="stop-color:#70CDDD"/>
		<stop  offset="1" style="stop-color:#408BCA"/>
	</linearGradient>
	<polygon clip-path="url(#SVGID_32_)" fill="url(#SVGID_33_)" points="129.387,38.934 50.813,96.048 -2.324,22.944 76.25,-34.169 	
		"/>
</g>
<g>
	<path fill="#414042" stroke="#414042" stroke-width="3" stroke-miterlimit="10" d="M129.772,64.502h-15.004V22.467h15.004
		c6.843,0,11.379,2.714,13.607,8.14c1.295,3.119,1.944,7.209,1.944,12.271c0,10.569-2.633,17.231-7.897,19.985
		C135.32,63.955,132.769,64.502,129.772,64.502z M140.524,42.877c0-8.058-1.802-13.08-5.406-15.064
		c-1.458-0.81-3.24-1.215-5.346-1.215h-10.326v33.773h10.326C136.94,60.371,140.524,54.54,140.524,42.877z"/>
	<path fill="#414042" stroke="#414042" stroke-width="3" stroke-miterlimit="10" d="M161.359,64.502V22.467h4.678v42.035H161.359z"
		/>
	<path fill="#414042" stroke="#414042" stroke-width="3" stroke-miterlimit="10" d="M200.356,47.19v-4.191h11.602v20.653
		c-5.103,0.972-9.658,1.458-13.667,1.458c-6.115,0-10.357-1.762-12.726-5.285c-2.369-3.523-3.554-8.959-3.554-16.31
		s1.185-12.796,3.554-16.34c2.369-3.543,6.57-5.315,12.604-5.315c3.766,0,7.673,0.405,11.723,1.215l2.065,0.365l-0.182,3.888
		c-5.022-0.851-9.376-1.276-13.061-1.276c-4.657,0-7.796,1.347-9.415,4.04c-1.621,2.693-2.43,7.168-2.43,13.424
		c0,6.257,0.81,10.732,2.43,13.425c1.619,2.693,4.738,4.039,9.354,4.039c2.834,0,5.729-0.282,8.687-0.851V47.19H200.356z"/>
	<path fill="#414042" stroke="#414042" stroke-width="3" stroke-miterlimit="10" d="M228.541,64.502V22.467h4.678v42.035H228.541z"
		/>
</g>
<g>
	<path fill="#414042" stroke="#414042" stroke-width="3" stroke-miterlimit="10" d="M264.754,64.502V22.467h25.148v4.131h-20.471
		v16.401h17.312v4.13h-17.312v17.373H264.754z"/>
	<path fill="#414042" stroke="#414042" stroke-width="3" stroke-miterlimit="10" d="M335.034,43.788
		c0,7.493-1.195,12.919-3.584,16.279c-2.39,3.362-6.733,5.042-13.029,5.042c-6.298,0-10.641-1.721-13.03-5.163
		s-3.583-8.858-3.583-16.25c0-7.39,1.215-12.877,3.645-16.461s6.742-5.376,12.938-5.376c6.195,0,10.518,1.783,12.969,5.346
		C333.809,30.769,335.034,36.297,335.034,43.788z M306.605,43.667c0,6.156,0.811,10.58,2.431,13.273
		c1.619,2.693,4.747,4.039,9.385,4.039c4.637,0,7.754-1.315,9.354-3.948c1.6-2.632,2.399-7.046,2.399-13.242
		s-0.83-10.711-2.49-13.546c-1.661-2.834-4.769-4.252-9.324-4.252c-4.557,0-7.654,1.407-9.294,4.222
		C307.426,33.027,306.605,37.512,306.605,43.667z"/>
	<path fill="#414042" stroke="#414042" stroke-width="3" stroke-miterlimit="10" d="M355.688,48.405v16.097h-4.678V22.467h15.551
		c4.454,0,7.806,1.033,10.053,3.098c2.248,2.065,3.372,5.285,3.372,9.658c0,6.48-2.572,10.55-7.715,12.209l8.079,17.069h-5.163
		l-7.594-16.097H355.688z M366.621,44.274c5.71,0,8.565-2.946,8.565-8.838c0-5.892-2.876-8.838-8.626-8.838h-10.873v17.676H366.621z
		"/>
	<path fill="#414042" stroke="#414042" stroke-width="3" stroke-miterlimit="10" d="M395.839,64.502V22.467h8.443l11.906,35.535
		l11.906-35.535h8.443v42.035h-4.678V27.448h-0.851l-12.209,35.536h-5.225l-12.209-35.536h-0.851v37.054H395.839z"/>
	<path fill="#414042" stroke="#414042" stroke-width="3" stroke-miterlimit="10" d="M465.877,25.929
		c-6.074,0-9.112,2.289-9.112,6.864c0,2.551,0.699,4.303,2.096,5.254c1.397,0.952,4.231,1.904,8.505,2.855
		c4.271,0.952,7.299,2.187,9.081,3.706c1.781,1.519,2.673,4.02,2.673,7.502c0,8.625-4.476,12.938-13.425,12.938
		c-2.956,0-6.662-0.345-11.116-1.033l-2.187-0.304l0.486-3.888c5.507,0.729,9.698,1.094,12.573,1.094c5.993,0,8.99-2.814,8.99-8.443
		c0-2.268-0.658-3.897-1.974-4.89c-1.316-0.992-3.776-1.832-7.381-2.521c-4.738-1.012-8.1-2.318-10.083-3.918
		c-1.985-1.6-2.977-4.283-2.977-8.049c0-7.532,4.515-11.298,13.546-11.298c2.955,0,6.499,0.304,10.63,0.911l2.065,0.304
		l-0.425,3.948C472.214,26.274,468.225,25.929,465.877,25.929z"/>
</g>
</svg>
