<?xml version="1.0" encoding="utf-8"?>
<!-- Generator: Adobe Illustrator 16.0.0, SVG Export Plug-In . SVG Version: 6.00 Build 0)  -->
<!DOCTYPE svg PUBLIC "-//W3C//DTD SVG 1.1//EN" "http://www.w3.org/Graphics/SVG/1.1/DTD/svg11.dtd">
<svg version="1.1" id="Layer_1" xmlns="http://www.w3.org/2000/svg" xmlns:xlink="http://www.w3.org/1999/xlink" x="0px" y="0px"
	 width="400px" height="90px" viewBox="0 0 400 90" enable-background="new 0 0 400 90" xml:space="preserve">
<g>
	<defs>
		<path id="SVGID_1_" d="M84.126,39.471L47.521,65.003L10.917,39.471c-1.329-0.926-3.157-0.6-4.084,0.727
			c-0.926,1.329-0.6,3.156,0.729,4.083l38.282,26.701c1.009,0.705,2.345,0.704,3.355,0l38.282-26.701
			c1.329-0.927,1.654-2.754,0.727-4.083c-0.569-0.816-1.481-1.254-2.407-1.255C85.221,38.942,84.636,39.115,84.126,39.471"/>
	</defs>
	<clipPath id="SVGID_2_">
		<use xlink:href="#SVGID_1_"  overflow="visible"/>
	</clipPath>
	
		<linearGradient id="SVGID_3_" gradientUnits="userSpaceOnUse" x1="-797.9517" y1="1057.4541" x2="-797.4685" y2="1057.4541" gradientTransform="matrix(-238.8965 173.6472 173.6472 238.8965 -374142.25 -114050.125)">
		<stop  offset="0" style="stop-color:#70CDDD"/>
		<stop  offset="1" style="stop-color:#408BCA"/>
	</linearGradient>
	<polygon clip-path="url(#SVGID_2_)" fill="url(#SVGID_3_)" points="104.897,60.23 34.679,111.271 -9.855,50.002 60.364,-1.038 	"/>
</g>
<g>
	<defs>
		<path id="SVGID_4_" d="M84.126,54.076L47.521,79.607L10.917,54.076c-1.329-0.927-3.157-0.602-4.084,0.727
			c-0.926,1.328-0.6,3.156,0.729,4.083l38.282,26.701c1.009,0.703,2.345,0.703,3.355,0l38.282-26.701
			c1.329-0.927,1.654-2.755,0.727-4.083c-0.569-0.817-1.481-1.255-2.407-1.255C85.221,53.548,84.636,53.718,84.126,54.076"/>
	</defs>
	<clipPath id="SVGID_5_">
		<use xlink:href="#SVGID_4_"  overflow="visible"/>
	</clipPath>
	
		<linearGradient id="SVGID_6_" gradientUnits="userSpaceOnUse" x1="-797.9526" y1="1057.4111" x2="-797.4695" y2="1057.4111" gradientTransform="matrix(-238.8965 173.6472 173.6472 238.8965 -374127.875 -114030.125)">
		<stop  offset="0" style="stop-color:#70CDDD"/>
		<stop  offset="1" style="stop-color:#408BCA"/>
	</linearGradient>
	<polygon clip-path="url(#SVGID_5_)" fill="url(#SVGID_6_)" points="104.897,74.834 34.679,125.874 -9.855,64.606 60.364,13.565 	
		"/>
</g>
<g>
	<defs>
		<path id="SVGID_7_" d="M21.7,19.537l-11.26,8.035c-0.498,0.352-0.616,1.026-0.263,1.525c0.351,0.498,1.055,0.615,1.553,0.264
			l11.261-8.036c0.499-0.351,0.586-1.026,0.233-1.524c-0.214-0.304-0.55-0.467-0.892-0.467C22.115,19.334,21.895,19.4,21.7,19.537"
			/>
	</defs>
	<clipPath id="SVGID_8_">
		<use xlink:href="#SVGID_7_"  overflow="visible"/>
	</clipPath>
	
		<linearGradient id="SVGID_9_" gradientUnits="userSpaceOnUse" x1="-797.9136" y1="1057.4863" x2="-797.4277" y2="1057.4863" gradientTransform="matrix(-238.8965 173.6472 173.6472 238.8965 -374173.1875 -114092.625)">
		<stop  offset="0" style="stop-color:#70CDDD"/>
		<stop  offset="1" style="stop-color:#408BCA"/>
	</linearGradient>
	<polygon clip-path="url(#SVGID_8_)" fill="url(#SVGID_9_)" points="28.512,26.125 14.579,36.253 4.889,22.922 18.823,12.793 	"/>
</g>
<g>
	<defs>
		<path id="SVGID_10_" d="M56.167,34.122l-11.26,8.034c-0.499,0.352-0.616,1.026-0.264,1.524c0.352,0.499,1.056,0.617,1.524,0.265
			l11.26-8.036c0.499-0.351,0.616-1.024,0.264-1.524c-0.215-0.305-0.55-0.466-0.891-0.466
			C56.581,33.919,56.361,33.984,56.167,34.122"/>
	</defs>
	<clipPath id="SVGID_11_">
		<use xlink:href="#SVGID_10_"  overflow="visible"/>
	</clipPath>
	
		<linearGradient id="SVGID_12_" gradientUnits="userSpaceOnUse" x1="-797.9536" y1="1057.418" x2="-797.4678" y2="1057.418" gradientTransform="matrix(-238.8965 173.6472 173.6472 238.8965 -374142.4375 -114050.125)">
		<stop  offset="0" style="stop-color:#70CDDD"/>
		<stop  offset="1" style="stop-color:#408BCA"/>
	</linearGradient>
	<polygon clip-path="url(#SVGID_11_)" fill="url(#SVGID_12_)" points="62.979,40.709 49.045,50.836 39.355,37.506 53.29,27.378 	"/>
</g>
<g>
	<defs>
		<path id="SVGID_13_" d="M55.111,18.14l-22.08,16.01c-0.47,0.352-0.587,1.056-0.235,1.525c0.352,0.499,1.056,0.615,1.554,0.264
			l22.052-16.01c0.499-0.381,0.615-1.056,0.234-1.555c-0.208-0.296-0.532-0.447-0.865-0.447
			C55.544,17.928,55.313,17.998,55.111,18.14"/>
	</defs>
	<clipPath id="SVGID_14_">
		<use xlink:href="#SVGID_13_"  overflow="visible"/>
	</clipPath>
	
		<linearGradient id="SVGID_15_" gradientUnits="userSpaceOnUse" x1="-797.9521" y1="1057.4668" x2="-797.4681" y2="1057.4668" gradientTransform="matrix(-238.8965 173.6472 173.6472 238.8965 -374158.875 -114072.625)">
		<stop  offset="0" style="stop-color:#70CDDD"/>
		<stop  offset="1" style="stop-color:#408BCA"/>
	</linearGradient>
	<polygon clip-path="url(#SVGID_14_)" fill="url(#SVGID_15_)" points="65.751,29.942 40.939,47.978 23.71,24.276 48.522,6.241 	"/>
</g>
<g>
	<defs>
		<path id="SVGID_16_" d="M60.888,22.128l-22.08,16.01c-0.468,0.352-0.586,1.055-0.234,1.524c0.352,0.499,1.056,0.617,1.524,0.264
			l22.081-16.01c0.498-0.352,0.586-1.055,0.234-1.554c-0.212-0.286-0.543-0.439-0.883-0.439
			C61.308,21.924,61.084,21.989,60.888,22.128"/>
	</defs>
	<clipPath id="SVGID_17_">
		<use xlink:href="#SVGID_16_"  overflow="visible"/>
	</clipPath>
	
		<linearGradient id="SVGID_18_" gradientUnits="userSpaceOnUse" x1="-797.9517" y1="1057.4434" x2="-797.4698" y2="1057.4434" gradientTransform="matrix(-238.8965 173.6472 173.6472 238.8965 -374150.8125 -114061.625)">
		<stop  offset="0" style="stop-color:#70CDDD"/>
		<stop  offset="1" style="stop-color:#408BCA"/>
	</linearGradient>
	<polygon clip-path="url(#SVGID_17_)" fill="url(#SVGID_18_)" points="71.495,33.934 46.706,51.951 29.492,28.268 54.28,10.25 	"/>
</g>
<g>
	<defs>
		<path id="SVGID_19_" d="M21.7,19.537l-11.26,8.035c-0.498,0.352-0.616,1.026-0.263,1.525c0.351,0.498,1.055,0.615,1.553,0.264
			l11.261-8.036c0.499-0.351,0.586-1.026,0.233-1.524c-0.214-0.304-0.55-0.467-0.892-0.467C22.115,19.334,21.895,19.4,21.7,19.537"
			/>
	</defs>
	<clipPath id="SVGID_20_">
		<use xlink:href="#SVGID_19_"  overflow="visible"/>
	</clipPath>
	
		<linearGradient id="SVGID_21_" gradientUnits="userSpaceOnUse" x1="-797.9136" y1="1057.4863" x2="-797.4277" y2="1057.4863" gradientTransform="matrix(-238.8965 173.6472 173.6472 238.8965 -374173.1875 -114092.625)">
		<stop  offset="0" style="stop-color:#70CDDD"/>
		<stop  offset="1" style="stop-color:#408BCA"/>
	</linearGradient>
	<polygon clip-path="url(#SVGID_20_)" fill="url(#SVGID_21_)" points="28.512,26.125 14.579,36.253 4.889,22.922 18.823,12.793 	"/>
</g>
<g>
	<defs>
		<path id="SVGID_22_" d="M55.111,18.14l-22.08,16.01c-0.47,0.352-0.587,1.056-0.235,1.525c0.352,0.499,1.056,0.615,1.554,0.264
			l22.052-16.01c0.499-0.381,0.615-1.056,0.234-1.555c-0.208-0.296-0.532-0.447-0.865-0.447
			C55.544,17.928,55.313,17.998,55.111,18.14"/>
	</defs>
	<clipPath id="SVGID_23_">
		<use xlink:href="#SVGID_22_"  overflow="visible"/>
	</clipPath>
	
		<linearGradient id="SVGID_24_" gradientUnits="userSpaceOnUse" x1="-797.9521" y1="1057.4668" x2="-797.4681" y2="1057.4668" gradientTransform="matrix(-238.8965 173.6472 173.6472 238.8965 -374158.875 -114072.625)">
		<stop  offset="0" style="stop-color:#70CDDD"/>
		<stop  offset="1" style="stop-color:#408BCA"/>
	</linearGradient>
	<polygon clip-path="url(#SVGID_23_)" fill="url(#SVGID_24_)" points="65.751,29.942 40.939,47.978 23.71,24.276 48.522,6.241 	"/>
</g>
<g>
	<defs>
		<path id="SVGID_25_" d="M56.167,34.122l-11.26,8.034c-0.499,0.352-0.616,1.026-0.264,1.524c0.352,0.499,1.056,0.617,1.524,0.265
			l11.26-8.036c0.499-0.351,0.616-1.024,0.264-1.524c-0.215-0.305-0.55-0.466-0.891-0.466
			C56.581,33.919,56.361,33.984,56.167,34.122"/>
	</defs>
	<clipPath id="SVGID_26_">
		<use xlink:href="#SVGID_25_"  overflow="visible"/>
	</clipPath>
	
		<linearGradient id="SVGID_27_" gradientUnits="userSpaceOnUse" x1="-797.9536" y1="1057.418" x2="-797.4678" y2="1057.418" gradientTransform="matrix(-238.8965 173.6472 173.6472 238.8965 -374142.4375 -114050.125)">
		<stop  offset="0" style="stop-color:#70CDDD"/>
		<stop  offset="1" style="stop-color:#408BCA"/>
	</linearGradient>
	<polygon clip-path="url(#SVGID_26_)" fill="url(#SVGID_27_)" points="62.979,40.709 49.045,50.836 39.355,37.506 53.29,27.378 	"/>
</g>
<g>
	<defs>
		<path id="SVGID_28_" d="M60.888,22.128l-22.08,16.01c-0.468,0.352-0.586,1.055-0.234,1.524c0.352,0.499,1.056,0.617,1.524,0.264
			l22.081-16.01c0.498-0.352,0.586-1.055,0.234-1.554c-0.212-0.286-0.543-0.439-0.883-0.439
			C61.308,21.924,61.084,21.989,60.888,22.128"/>
	</defs>
	<clipPath id="SVGID_29_">
		<use xlink:href="#SVGID_28_"  overflow="visible"/>
	</clipPath>
	
		<linearGradient id="SVGID_30_" gradientUnits="userSpaceOnUse" x1="-797.9517" y1="1057.4434" x2="-797.4698" y2="1057.4434" gradientTransform="matrix(-238.8965 173.6472 173.6472 238.8965 -374150.8125 -114061.625)">
		<stop  offset="0" style="stop-color:#70CDDD"/>
		<stop  offset="1" style="stop-color:#408BCA"/>
	</linearGradient>
	<polygon clip-path="url(#SVGID_29_)" fill="url(#SVGID_30_)" points="71.495,33.934 46.706,51.951 29.492,28.268 54.28,10.25 	"/>
</g>
<g>
	<defs>
		<path id="SVGID_31_" d="M49.187,17.994l9.267-6.451L80.68,27.025L47.517,50.16L14.353,27.025l22.226-15.482l9.266,6.451
			c0.499,0.352,1.085,0.527,1.671,0.527C48.104,18.521,48.689,18.346,49.187,17.994 M36.579,5.033c-0.292,0-0.615,0.059-0.909,0.147
			c-0.117,0.029-0.234,0.116-0.381,0.176c-0.117,0.059-0.264,0.118-0.381,0.205l-0.059,0.03L7.55,24.621
			c-0.763,0.557-1.232,1.438-1.232,2.405c0,0.966,0.469,1.847,1.232,2.404l38.294,26.713c0.997,0.703,2.347,0.703,3.342,0
			l38.297-26.713c0.792-0.557,1.26-1.438,1.26-2.404c0-0.967-0.469-1.848-1.26-2.405L60.213,5.59h-0.03l-0.057-0.03
			c-0.118-0.087-0.264-0.146-0.382-0.205c-0.117-0.06-0.234-0.146-0.381-0.176c-0.292-0.088-0.586-0.147-0.909-0.147H36.579z"/>
	</defs>
	<clipPath id="SVGID_32_">
		<use xlink:href="#SVGID_31_"  overflow="visible"/>
	</clipPath>
	
		<linearGradient id="SVGID_33_" gradientUnits="userSpaceOnUse" x1="-797.9521" y1="1057.4717" x2="-797.4686" y2="1057.4717" gradientTransform="matrix(-238.8965 173.6472 173.6472 238.8965 -374156.875 -114070.125)">
		<stop  offset="0" style="stop-color:#70CDDD"/>
		<stop  offset="1" style="stop-color:#408BCA"/>
	</linearGradient>
	<polygon clip-path="url(#SVGID_32_)" fill="url(#SVGID_33_)" points="113.387,38.934 34.813,96.048 -18.324,22.944 60.25,-34.169 	
		"/>
</g>
<text transform="matrix(1 0 0 1 107.6455 59.5684)" fill="#414042" stroke="#414042" stroke-width="3" stroke-miterlimit="10" font-family="'TitilliumWeb-Regular'" font-size="47.0609" letter-spacing="5">ZIPPY</text>
<text transform="matrix(1 0 0 1 267.0508 59.5684)" fill="#414042" stroke="#414042" stroke-width="3" stroke-miterlimit="10" font-family="'TitilliumWeb-Regular'" font-size="47.0609" letter-spacing="5">DOCS</text>
</svg>
