<?xml version="1.0" encoding="utf-8"?>
<!-- Generator: Adobe Illustrator 16.0.0, SVG Export Plug-In . SVG Version: 6.00 Build 0)  -->
<!DOCTYPE svg PUBLIC "-//W3C//DTD SVG 1.1//EN" "http://www.w3.org/Graphics/SVG/1.1/DTD/svg11.dtd">
<svg version="1.1" id="Layer_1" xmlns="http://www.w3.org/2000/svg" xmlns:xlink="http://www.w3.org/1999/xlink" x="0px" y="0px"
	 width="400px" height="80px" viewBox="0 -1.533 400 80" enable-background="new 0 -1.533 400 80" xml:space="preserve">
<g>
	<defs>
		<path id="SVGID_1_" d="M75.578,33.997l-32.91,22.955L9.757,33.997c-1.194-0.832-2.838-0.539-3.671,0.654
			c-0.833,1.195-0.539,2.837,0.655,3.672l34.418,24.006c0.907,0.635,2.108,0.632,3.017,0l34.418-24.006
			c1.195-0.835,1.487-2.477,0.654-3.672c-0.511-0.733-1.332-1.128-2.164-1.129C76.562,33.522,76.036,33.678,75.578,33.997"/>
	</defs>
	<clipPath id="SVGID_2_">
		<use xlink:href="#SVGID_1_"  overflow="visible"/>
	</clipPath>
	
		<linearGradient id="SVGID_3_" gradientUnits="userSpaceOnUse" x1="-798.9082" y1="1046.9561" x2="-798.474" y2="1046.9561" gradientTransform="matrix(-238.8965 173.6472 173.6472 238.8965 -372558.8125 -111378.4063)">
		<stop  offset="0" style="stop-color:#6FCBDC"/>
		<stop  offset="1" style="stop-color:#3F8AC9"/>
	</linearGradient>
	<polygon clip-path="url(#SVGID_2_)" fill="url(#SVGID_3_)" points="94.252,52.662 31.122,98.549 -8.917,43.466 54.214,-2.422 	"/>
</g>
<g>
	<defs>
		<path id="SVGID_4_" d="M75.578,47.128l-32.91,22.955L9.757,47.128c-1.194-0.834-2.838-0.541-3.671,0.654
			c-0.833,1.193-0.539,2.837,0.655,3.67l34.418,24.006c0.907,0.634,2.108,0.634,3.017,0l34.418-24.006
			c1.195-0.833,1.487-2.477,0.654-3.67c-0.511-0.734-1.332-1.128-2.164-1.128C76.562,46.654,76.036,46.807,75.578,47.128"/>
	</defs>
	<clipPath id="SVGID_5_">
		<use xlink:href="#SVGID_4_"  overflow="visible"/>
	</clipPath>
	
		<linearGradient id="SVGID_6_" gradientUnits="userSpaceOnUse" x1="-798.9092" y1="1046.9082" x2="-798.4742" y2="1046.9082" gradientTransform="matrix(-238.8965 173.6472 173.6472 238.8965 -372544.4375 -111358.4063)">
		<stop  offset="0" style="stop-color:#6FCBDC"/>
		<stop  offset="1" style="stop-color:#3F8AC9"/>
	</linearGradient>
	<polygon clip-path="url(#SVGID_5_)" fill="url(#SVGID_6_)" points="94.252,65.793 31.122,111.68 -8.917,56.597 54.214,10.708 	"/>
</g>
<g>
	<defs>
		<path id="SVGID_7_" d="M19.453,16.076L9.33,23.3c-0.448,0.316-0.554,0.923-0.236,1.372c0.315,0.447,0.948,0.553,1.396,0.238
			l10.125-7.225c0.448-0.315,0.527-0.922,0.209-1.371c-0.192-0.273-0.494-0.419-0.802-0.419
			C19.826,15.895,19.628,15.954,19.453,16.076"/>
	</defs>
	<clipPath id="SVGID_8_">
		<use xlink:href="#SVGID_7_"  overflow="visible"/>
	</clipPath>
	
		<linearGradient id="SVGID_9_" gradientUnits="userSpaceOnUse" x1="-798.8721" y1="1047.0029" x2="-798.4388" y2="1047.0029" gradientTransform="matrix(-238.8965 173.6472 173.6472 238.8965 -372589.75 -111420.9063)">
		<stop  offset="0" style="stop-color:#6FCBDC"/>
		<stop  offset="1" style="stop-color:#3F8AC9"/>
	</linearGradient>
	<polygon clip-path="url(#SVGID_8_)" fill="url(#SVGID_9_)" points="25.577,21.999 13.05,31.105 4.339,19.119 16.866,10.013 	"/>
</g>
<g>
	<defs>
		<path id="SVGID_10_" d="M50.441,29.188l-10.124,7.223c-0.448,0.317-0.554,0.923-0.237,1.37c0.316,0.448,0.949,0.555,1.37,0.239
			l10.124-7.226c0.449-0.315,0.554-0.921,0.237-1.37c-0.193-0.274-0.494-0.418-0.801-0.418
			C50.813,29.007,50.615,29.065,50.441,29.188"/>
	</defs>
	<clipPath id="SVGID_11_">
		<use xlink:href="#SVGID_10_"  overflow="visible"/>
	</clipPath>
	
		<linearGradient id="SVGID_12_" gradientUnits="userSpaceOnUse" x1="-798.9082" y1="1046.9238" x2="-798.475" y2="1046.9238" gradientTransform="matrix(-238.8965 173.6472 173.6472 238.8965 -372559 -111378.4063)">
		<stop  offset="0" style="stop-color:#6FCBDC"/>
		<stop  offset="1" style="stop-color:#3F8AC9"/>
	</linearGradient>
	<polygon clip-path="url(#SVGID_11_)" fill="url(#SVGID_12_)" points="56.565,35.11 44.038,44.217 35.327,32.231 47.854,23.126 	"/>
</g>
<g>
	<defs>
		<path id="SVGID_13_" d="M49.492,14.82L29.64,29.215c-0.422,0.316-0.527,0.949-0.211,1.371c0.316,0.448,0.95,0.552,1.397,0.237
			l19.826-14.394c0.448-0.343,0.553-0.95,0.21-1.398c-0.188-0.266-0.479-0.401-0.777-0.401
			C49.881,14.629,49.673,14.692,49.492,14.82"/>
	</defs>
	<clipPath id="SVGID_14_">
		<use xlink:href="#SVGID_13_"  overflow="visible"/>
	</clipPath>
	
		<linearGradient id="SVGID_15_" gradientUnits="userSpaceOnUse" x1="-798.9082" y1="1046.9766" x2="-798.4741" y2="1046.9766" gradientTransform="matrix(-238.8965 173.6472 173.6472 238.8965 -372575.4375 -111400.9063)">
		<stop  offset="0" style="stop-color:#6FCBDC"/>
		<stop  offset="1" style="stop-color:#3F8AC9"/>
	</linearGradient>
	<polygon clip-path="url(#SVGID_14_)" fill="url(#SVGID_15_)" points="59.057,25.431 36.75,41.646 21.26,20.337 43.567,4.122 	"/>
</g>
<g>
	<defs>
		<path id="SVGID_16_" d="M54.685,18.406L34.833,32.799c-0.421,0.317-0.527,0.949-0.211,1.371c0.316,0.448,0.95,0.556,1.37,0.237
			l19.853-14.394c0.447-0.316,0.527-0.949,0.21-1.397c-0.19-0.257-0.488-0.395-0.794-0.395
			C55.063,18.222,54.861,18.281,54.685,18.406"/>
	</defs>
	<clipPath id="SVGID_17_">
		<use xlink:href="#SVGID_16_"  overflow="visible"/>
	</clipPath>
	
		<linearGradient id="SVGID_18_" gradientUnits="userSpaceOnUse" x1="-798.9087" y1="1046.9512" x2="-798.4746" y2="1046.9512" gradientTransform="matrix(-238.8965 173.6472 173.6472 238.8965 -372567.375 -111389.9063)">
		<stop  offset="0" style="stop-color:#6FCBDC"/>
		<stop  offset="1" style="stop-color:#3F8AC9"/>
	</linearGradient>
	<polygon clip-path="url(#SVGID_17_)" fill="url(#SVGID_18_)" points="64.221,29.02 41.935,45.218 26.458,23.926 48.745,7.727 	"/>
</g>
<g>
	<defs>
		<path id="SVGID_19_" d="M19.453,16.076L9.33,23.3c-0.448,0.316-0.554,0.923-0.236,1.372c0.315,0.447,0.948,0.553,1.396,0.238
			l10.125-7.225c0.448-0.315,0.527-0.922,0.209-1.371c-0.192-0.273-0.494-0.419-0.802-0.419
			C19.826,15.895,19.628,15.954,19.453,16.076"/>
	</defs>
	<clipPath id="SVGID_20_">
		<use xlink:href="#SVGID_19_"  overflow="visible"/>
	</clipPath>
	
		<linearGradient id="SVGID_21_" gradientUnits="userSpaceOnUse" x1="-798.8721" y1="1047.0029" x2="-798.4388" y2="1047.0029" gradientTransform="matrix(-238.8965 173.6472 173.6472 238.8965 -372589.75 -111420.9063)">
		<stop  offset="0" style="stop-color:#6FCBDC"/>
		<stop  offset="1" style="stop-color:#3F8AC9"/>
	</linearGradient>
	<polygon clip-path="url(#SVGID_20_)" fill="url(#SVGID_21_)" points="25.577,21.999 13.05,31.105 4.339,19.119 16.866,10.013 	"/>
</g>
<g>
	<defs>
		<path id="SVGID_22_" d="M49.492,14.82L29.64,29.215c-0.422,0.316-0.527,0.949-0.211,1.371c0.316,0.448,0.95,0.552,1.397,0.237
			l19.826-14.394c0.448-0.343,0.553-0.95,0.21-1.398c-0.188-0.266-0.479-0.401-0.777-0.401
			C49.881,14.629,49.673,14.692,49.492,14.82"/>
	</defs>
	<clipPath id="SVGID_23_">
		<use xlink:href="#SVGID_22_"  overflow="visible"/>
	</clipPath>
	
		<linearGradient id="SVGID_24_" gradientUnits="userSpaceOnUse" x1="-798.9082" y1="1046.9766" x2="-798.4741" y2="1046.9766" gradientTransform="matrix(-238.8965 173.6472 173.6472 238.8965 -372575.4375 -111400.9063)">
		<stop  offset="0" style="stop-color:#6FCBDC"/>
		<stop  offset="1" style="stop-color:#3F8AC9"/>
	</linearGradient>
	<polygon clip-path="url(#SVGID_23_)" fill="url(#SVGID_24_)" points="59.057,25.431 36.75,41.646 21.26,20.337 43.567,4.122 	"/>
</g>
<g>
	<defs>
		<path id="SVGID_25_" d="M50.441,29.188l-10.124,7.223c-0.448,0.317-0.554,0.923-0.237,1.37c0.316,0.448,0.949,0.555,1.37,0.239
			l10.124-7.226c0.449-0.315,0.554-0.921,0.237-1.37c-0.193-0.274-0.494-0.418-0.801-0.418
			C50.813,29.007,50.615,29.065,50.441,29.188"/>
	</defs>
	<clipPath id="SVGID_26_">
		<use xlink:href="#SVGID_25_"  overflow="visible"/>
	</clipPath>
	
		<linearGradient id="SVGID_27_" gradientUnits="userSpaceOnUse" x1="-798.9082" y1="1046.9238" x2="-798.475" y2="1046.9238" gradientTransform="matrix(-238.8965 173.6472 173.6472 238.8965 -372559 -111378.4063)">
		<stop  offset="0" style="stop-color:#6FCBDC"/>
		<stop  offset="1" style="stop-color:#3F8AC9"/>
	</linearGradient>
	<polygon clip-path="url(#SVGID_26_)" fill="url(#SVGID_27_)" points="56.565,35.11 44.038,44.217 35.327,32.231 47.854,23.126 	"/>
</g>
<g>
	<defs>
		<path id="SVGID_28_" d="M54.685,18.406L34.833,32.799c-0.421,0.317-0.527,0.949-0.211,1.371c0.316,0.448,0.95,0.556,1.37,0.237
			l19.853-14.394c0.447-0.316,0.527-0.949,0.21-1.397c-0.19-0.257-0.488-0.395-0.794-0.395
			C55.063,18.222,54.861,18.281,54.685,18.406"/>
	</defs>
	<clipPath id="SVGID_29_">
		<use xlink:href="#SVGID_28_"  overflow="visible"/>
	</clipPath>
	
		<linearGradient id="SVGID_30_" gradientUnits="userSpaceOnUse" x1="-798.9087" y1="1046.9512" x2="-798.4746" y2="1046.9512" gradientTransform="matrix(-238.8965 173.6472 173.6472 238.8965 -372567.375 -111389.9063)">
		<stop  offset="0" style="stop-color:#6FCBDC"/>
		<stop  offset="1" style="stop-color:#3F8AC9"/>
	</linearGradient>
	<polygon clip-path="url(#SVGID_29_)" fill="url(#SVGID_30_)" points="64.221,29.02 41.935,45.218 26.458,23.926 48.745,7.727 	"/>
</g>
<g>
	<defs>
		<path id="SVGID_31_" d="M44.165,14.689l8.332-5.8L72.48,22.809l-29.817,20.8l-29.816-20.8L32.83,8.889l8.331,5.8
			c0.448,0.316,0.976,0.475,1.502,0.475C43.191,15.164,43.717,15.005,44.165,14.689 M32.83,3.036c-0.264,0-0.554,0.053-0.818,0.132
			c-0.105,0.026-0.211,0.105-0.342,0.158c-0.104,0.053-0.237,0.106-0.342,0.185l-0.053,0.027L6.731,20.647
			c-0.686,0.5-1.107,1.292-1.107,2.162c0,0.869,0.422,1.66,1.107,2.161l34.43,24.018c0.896,0.631,2.11,0.631,3.004,0L78.597,24.97
			c0.712-0.501,1.133-1.292,1.133-2.161c0-0.87-0.421-1.661-1.133-2.162L54.079,3.538h-0.027L54,3.511
			c-0.106-0.079-0.237-0.132-0.343-0.185c-0.105-0.053-0.211-0.132-0.343-0.158c-0.263-0.079-0.527-0.132-0.817-0.132H32.83z"/>
	</defs>
	<clipPath id="SVGID_32_">
		<use xlink:href="#SVGID_31_"  overflow="visible"/>
	</clipPath>
	
		<linearGradient id="SVGID_33_" gradientUnits="userSpaceOnUse" x1="-798.9087" y1="1046.9805" x2="-798.474" y2="1046.9805" gradientTransform="matrix(-238.8965 173.6472 173.6472 238.8965 -372573.4375 -111398.4063)">
		<stop  offset="0" style="stop-color:#6FCBDC"/>
		<stop  offset="1" style="stop-color:#3F8AC9"/>
	</linearGradient>
	<polygon clip-path="url(#SVGID_32_)" fill="url(#SVGID_33_)" points="101.884,33.516 31.242,84.864 -16.531,19.139 54.111,-32.209 
			"/>
</g>
<g>
	<path fill="#404041" stroke="#404041" stroke-width="3" stroke-miterlimit="10" d="M98.542,25.666v-2.877h19.04v3.808
		l-15.316,21.748v0.847h15.316v2.919h-19.04v-3.766l15.274-21.748v-0.931H98.542z"/>
	<path fill="#404041" stroke="#404041" stroke-width="3" stroke-miterlimit="10" d="M128.16,52.067V22.789h3.258v29.279H128.16z"/>
	<path fill="#404041" stroke="#404041" stroke-width="3" stroke-miterlimit="10" d="M154.434,42.209h-7.446v9.858h-3.258V22.789
		h10.705c3.188,0,5.543,0.776,7.066,2.327c1.523,1.551,2.285,3.921,2.285,7.108C163.784,38.881,160.667,42.209,154.434,42.209z
		 M146.987,39.332h7.404c4.033,0,6.05-2.369,6.05-7.108c0-2.256-0.48-3.914-1.438-4.971c-0.959-1.058-2.497-1.587-4.612-1.587
		h-7.404V39.332z"/>
	<path fill="#404041" stroke="#404041" stroke-width="3" stroke-miterlimit="10" d="M184.685,42.209h-7.446v9.858h-3.258V22.789
		h10.705c3.188,0,5.543,0.776,7.066,2.327c1.523,1.551,2.285,3.921,2.285,7.108C194.036,38.881,190.919,42.209,184.685,42.209z
		 M177.239,39.332h7.404c4.033,0,6.05-2.369,6.05-7.108c0-2.256-0.48-3.914-1.438-4.971c-0.959-1.058-2.497-1.587-4.612-1.587
		h-7.404V39.332z"/>
	<path fill="#404041" stroke="#404041" stroke-width="3" stroke-miterlimit="10" d="M212.821,52.067h-3.258V39.755l-9.351-16.966
		h3.682l7.277,13.708l7.277-13.708h3.681l-9.309,16.966V52.067z"/>
</g>
<g>
	<path fill="#404041" stroke="#404041" stroke-width="3" stroke-miterlimit="10" d="M243.633,52.067V22.789h17.517v2.877h-14.259
		V37.09h12.059v2.877h-12.059v12.101H243.633z"/>
	<path fill="#404041" stroke="#404041" stroke-width="3" stroke-miterlimit="10" d="M292.586,37.64
		c0,5.219-0.832,8.998-2.496,11.339c-1.665,2.342-4.69,3.512-9.076,3.512s-7.411-1.198-9.075-3.596
		c-1.665-2.397-2.496-6.171-2.496-11.318s0.846-8.97,2.538-11.466s4.696-3.745,9.013-3.745c4.315,0,7.326,1.242,9.033,3.724
		C291.732,28.571,292.586,32.421,292.586,37.64z M272.784,37.555c0,4.288,0.564,7.369,1.692,9.245s3.308,2.813,6.537,2.813
		s5.401-0.916,6.516-2.75c1.114-1.833,1.672-4.908,1.672-9.224c0-4.316-0.579-7.461-1.735-9.436
		c-1.156-1.974-3.321-2.961-6.494-2.961c-3.174,0-5.331,0.98-6.474,2.94C273.355,30.144,272.784,33.268,272.784,37.555z"/>
	<path fill="#404041" stroke="#404041" stroke-width="3" stroke-miterlimit="10" d="M306.971,40.855v11.212h-3.258V22.789h10.831
		c3.103,0,5.438,0.719,7.003,2.158s2.348,3.681,2.348,6.728c0,4.514-1.791,7.348-5.373,8.504l5.627,11.89h-3.597l-5.288-11.212
		H306.971z M314.586,37.978c3.978,0,5.966-2.052,5.966-6.156s-2.003-6.156-6.008-6.156h-7.573v12.312H314.586z"/>
	<path fill="#404041" stroke="#404041" stroke-width="3" stroke-miterlimit="10" d="M334.938,52.067V22.789h5.881l8.293,24.751
		l8.293-24.751h5.881v29.279h-3.258v-25.81h-0.593l-8.504,24.752h-3.639l-8.505-24.752h-0.592v25.81H334.938z"/>
	<path fill="#404041" stroke="#404041" stroke-width="3" stroke-miterlimit="10" d="M383.722,25.2c-4.231,0-6.347,1.594-6.347,4.781
		c0,1.777,0.486,2.997,1.46,3.659c0.973,0.664,2.947,1.327,5.923,1.989c2.977,0.663,5.084,1.523,6.326,2.581
		c1.24,1.058,1.861,2.8,1.861,5.225c0,6.009-3.117,9.013-9.351,9.013c-2.06,0-4.641-0.24-7.743-0.72l-1.522-0.211l0.338-2.708
		c3.836,0.508,6.755,0.762,8.759,0.762c4.174,0,6.262-1.96,6.262-5.882c0-1.579-0.459-2.714-1.375-3.405
		c-0.917-0.691-2.631-1.276-5.141-1.756c-3.301-0.705-5.643-1.614-7.023-2.729c-1.383-1.114-2.073-2.983-2.073-5.606
		c0-5.247,3.145-7.87,9.435-7.87c2.059,0,4.527,0.211,7.404,0.634l1.438,0.212l-0.296,2.75C388.136,25.44,385.357,25.2,383.722,25.2
		z"/>
</g>
</svg>
