<?xml version="1.0" encoding="utf-8"?>
<!-- Generator: Adobe Illustrator 16.0.0, SVG Export Plug-In . SVG Version: 6.00 Build 0)  -->
<!DOCTYPE svg PUBLIC "-//W3C//DTD SVG 1.1//EN" "http://www.w3.org/Graphics/SVG/1.1/DTD/svg11.dtd">
<svg version="1.1" id="Layer_1" xmlns="http://www.w3.org/2000/svg" xmlns:xlink="http://www.w3.org/1999/xlink" x="0px" y="0px"
	 width="500px" height="90px" viewBox="0 0 500 90" enable-background="new 0 0 500 90" xml:space="preserve">
<g>
	<defs>
		<path id="SVGID_1_" d="M107.126,39.471L70.521,65.003L33.917,39.471c-1.329-0.926-3.157-0.6-4.084,0.727
			c-0.926,1.329-0.6,3.156,0.729,4.083l38.282,26.701c1.009,0.705,2.345,0.704,3.355,0l38.282-26.701
			c1.329-0.927,1.654-2.754,0.727-4.083c-0.569-0.816-1.481-1.254-2.407-1.255C108.221,38.942,107.636,39.115,107.126,39.471"/>
	</defs>
	<clipPath id="SVGID_2_">
		<use xlink:href="#SVGID_1_"  overflow="visible"/>
	</clipPath>
	
		<linearGradient id="SVGID_3_" gradientUnits="userSpaceOnUse" x1="-748.3794" y1="1057.4014" x2="-747.8962" y2="1057.4014" gradientTransform="matrix(-238.8965 173.6472 173.6472 238.8965 -362267.375 -122645.6563)">
		<stop  offset="0" style="stop-color:#70CDDD"/>
		<stop  offset="1" style="stop-color:#408BCA"/>
	</linearGradient>
	<polygon clip-path="url(#SVGID_2_)" fill="url(#SVGID_3_)" points="127.897,60.23 57.679,111.271 13.145,50.002 83.364,-1.038 	"/>
</g>
<g>
	<defs>
		<path id="SVGID_4_" d="M107.126,54.076L70.521,79.607L33.917,54.076c-1.329-0.927-3.157-0.602-4.084,0.727
			c-0.926,1.328-0.6,3.156,0.729,4.083l38.282,26.701c1.009,0.703,2.345,0.703,3.355,0l38.282-26.701
			c1.329-0.927,1.654-2.755,0.727-4.083c-0.569-0.817-1.481-1.255-2.407-1.255C108.221,53.548,107.636,53.718,107.126,54.076"/>
	</defs>
	<clipPath id="SVGID_5_">
		<use xlink:href="#SVGID_4_"  overflow="visible"/>
	</clipPath>
	
		<linearGradient id="SVGID_6_" gradientUnits="userSpaceOnUse" x1="-748.3799" y1="1057.3574" x2="-747.8967" y2="1057.3574" gradientTransform="matrix(-238.8965 173.6472 173.6472 238.8965 -362253 -122625.6563)">
		<stop  offset="0" style="stop-color:#70CDDD"/>
		<stop  offset="1" style="stop-color:#408BCA"/>
	</linearGradient>
	<polygon clip-path="url(#SVGID_5_)" fill="url(#SVGID_6_)" points="127.897,74.834 57.679,125.874 13.145,64.606 83.364,13.565 	
		"/>
</g>
<g>
	<defs>
		<path id="SVGID_7_" d="M44.7,19.537l-11.26,8.035c-0.498,0.352-0.616,1.026-0.263,1.525c0.351,0.498,1.055,0.615,1.553,0.264
			l11.261-8.036c0.499-0.351,0.586-1.026,0.233-1.524c-0.214-0.304-0.55-0.467-0.892-0.467C45.115,19.334,44.895,19.4,44.7,19.537"
			/>
	</defs>
	<clipPath id="SVGID_8_">
		<use xlink:href="#SVGID_7_"  overflow="visible"/>
	</clipPath>
	
		<linearGradient id="SVGID_9_" gradientUnits="userSpaceOnUse" x1="-748.3389" y1="1057.4336" x2="-747.8571" y2="1057.4336" gradientTransform="matrix(-238.8965 173.6472 173.6472 238.8965 -362298.3125 -122688.1563)">
		<stop  offset="0" style="stop-color:#70CDDD"/>
		<stop  offset="1" style="stop-color:#408BCA"/>
	</linearGradient>
	<polygon clip-path="url(#SVGID_8_)" fill="url(#SVGID_9_)" points="51.512,26.125 37.579,36.253 27.889,22.922 41.823,12.793 	"/>
</g>
<g>
	<defs>
		<path id="SVGID_10_" d="M79.167,34.122l-11.26,8.034c-0.499,0.352-0.616,1.026-0.264,1.524c0.352,0.499,1.056,0.617,1.524,0.265
			l11.26-8.036c0.499-0.351,0.616-1.024,0.264-1.524c-0.215-0.305-0.55-0.466-0.891-0.466
			C79.581,33.919,79.361,33.984,79.167,34.122"/>
	</defs>
	<clipPath id="SVGID_11_">
		<use xlink:href="#SVGID_10_"  overflow="visible"/>
	</clipPath>
	
		<linearGradient id="SVGID_12_" gradientUnits="userSpaceOnUse" x1="-748.3789" y1="1057.3652" x2="-747.8971" y2="1057.3652" gradientTransform="matrix(-238.8965 173.6472 173.6472 238.8965 -362267.5625 -122645.6563)">
		<stop  offset="0" style="stop-color:#70CDDD"/>
		<stop  offset="1" style="stop-color:#408BCA"/>
	</linearGradient>
	<polygon clip-path="url(#SVGID_11_)" fill="url(#SVGID_12_)" points="85.979,40.709 72.045,50.836 62.355,37.506 76.29,27.378 	"/>
</g>
<g>
	<defs>
		<path id="SVGID_13_" d="M78.111,18.14l-22.08,16.01c-0.47,0.352-0.587,1.056-0.235,1.525c0.352,0.499,1.056,0.615,1.554,0.264
			l22.052-16.01c0.499-0.381,0.615-1.056,0.234-1.555c-0.208-0.296-0.532-0.447-0.865-0.447
			C78.544,17.928,78.313,17.998,78.111,18.14"/>
	</defs>
	<clipPath id="SVGID_14_">
		<use xlink:href="#SVGID_13_"  overflow="visible"/>
	</clipPath>
	
		<linearGradient id="SVGID_15_" gradientUnits="userSpaceOnUse" x1="-748.3789" y1="1057.4141" x2="-747.8971" y2="1057.4141" gradientTransform="matrix(-238.8965 173.6472 173.6472 238.8965 -362284 -122668.1563)">
		<stop  offset="0" style="stop-color:#70CDDD"/>
		<stop  offset="1" style="stop-color:#408BCA"/>
	</linearGradient>
	<polygon clip-path="url(#SVGID_14_)" fill="url(#SVGID_15_)" points="88.751,29.942 63.939,47.978 46.71,24.276 71.522,6.241 	"/>
</g>
<g>
	<defs>
		<path id="SVGID_16_" d="M83.888,22.128l-22.08,16.01c-0.468,0.352-0.586,1.055-0.234,1.524c0.352,0.499,1.056,0.617,1.524,0.264
			l22.081-16.01c0.498-0.352,0.586-1.055,0.234-1.554c-0.212-0.286-0.543-0.439-0.883-0.439
			C84.308,21.924,84.084,21.989,83.888,22.128"/>
	</defs>
	<clipPath id="SVGID_17_">
		<use xlink:href="#SVGID_16_"  overflow="visible"/>
	</clipPath>
	
		<linearGradient id="SVGID_18_" gradientUnits="userSpaceOnUse" x1="-748.3789" y1="1057.3906" x2="-747.8971" y2="1057.3906" gradientTransform="matrix(-238.8965 173.6472 173.6472 238.8965 -362275.9375 -122657.1563)">
		<stop  offset="0" style="stop-color:#70CDDD"/>
		<stop  offset="1" style="stop-color:#408BCA"/>
	</linearGradient>
	<polygon clip-path="url(#SVGID_17_)" fill="url(#SVGID_18_)" points="94.495,33.934 69.706,51.951 52.492,28.268 77.28,10.25 	"/>
</g>
<g>
	<defs>
		<path id="SVGID_19_" d="M44.7,19.537l-11.26,8.035c-0.498,0.352-0.616,1.026-0.263,1.525c0.351,0.498,1.055,0.615,1.553,0.264
			l11.261-8.036c0.499-0.351,0.586-1.026,0.233-1.524c-0.214-0.304-0.55-0.467-0.892-0.467C45.115,19.334,44.895,19.4,44.7,19.537"
			/>
	</defs>
	<clipPath id="SVGID_20_">
		<use xlink:href="#SVGID_19_"  overflow="visible"/>
	</clipPath>
	
		<linearGradient id="SVGID_21_" gradientUnits="userSpaceOnUse" x1="-748.3389" y1="1057.4336" x2="-747.8571" y2="1057.4336" gradientTransform="matrix(-238.8965 173.6472 173.6472 238.8965 -362298.3125 -122688.1563)">
		<stop  offset="0" style="stop-color:#70CDDD"/>
		<stop  offset="1" style="stop-color:#408BCA"/>
	</linearGradient>
	<polygon clip-path="url(#SVGID_20_)" fill="url(#SVGID_21_)" points="51.512,26.125 37.579,36.253 27.889,22.922 41.823,12.793 	
		"/>
</g>
<g>
	<defs>
		<path id="SVGID_22_" d="M78.111,18.14l-22.08,16.01c-0.47,0.352-0.587,1.056-0.235,1.525c0.352,0.499,1.056,0.615,1.554,0.264
			l22.052-16.01c0.499-0.381,0.615-1.056,0.234-1.555c-0.208-0.296-0.532-0.447-0.865-0.447
			C78.544,17.928,78.313,17.998,78.111,18.14"/>
	</defs>
	<clipPath id="SVGID_23_">
		<use xlink:href="#SVGID_22_"  overflow="visible"/>
	</clipPath>
	
		<linearGradient id="SVGID_24_" gradientUnits="userSpaceOnUse" x1="-748.3789" y1="1057.4141" x2="-747.8971" y2="1057.4141" gradientTransform="matrix(-238.8965 173.6472 173.6472 238.8965 -362284 -122668.1563)">
		<stop  offset="0" style="stop-color:#70CDDD"/>
		<stop  offset="1" style="stop-color:#408BCA"/>
	</linearGradient>
	<polygon clip-path="url(#SVGID_23_)" fill="url(#SVGID_24_)" points="88.751,29.942 63.939,47.978 46.71,24.276 71.522,6.241 	"/>
</g>
<g>
	<defs>
		<path id="SVGID_25_" d="M79.167,34.122l-11.26,8.034c-0.499,0.352-0.616,1.026-0.264,1.524c0.352,0.499,1.056,0.617,1.524,0.265
			l11.26-8.036c0.499-0.351,0.616-1.024,0.264-1.524c-0.215-0.305-0.55-0.466-0.891-0.466
			C79.581,33.919,79.361,33.984,79.167,34.122"/>
	</defs>
	<clipPath id="SVGID_26_">
		<use xlink:href="#SVGID_25_"  overflow="visible"/>
	</clipPath>
	
		<linearGradient id="SVGID_27_" gradientUnits="userSpaceOnUse" x1="-748.3789" y1="1057.3652" x2="-747.8971" y2="1057.3652" gradientTransform="matrix(-238.8965 173.6472 173.6472 238.8965 -362267.5625 -122645.6563)">
		<stop  offset="0" style="stop-color:#70CDDD"/>
		<stop  offset="1" style="stop-color:#408BCA"/>
	</linearGradient>
	<polygon clip-path="url(#SVGID_26_)" fill="url(#SVGID_27_)" points="85.979,40.709 72.045,50.836 62.355,37.506 76.29,27.378 	"/>
</g>
<g>
	<defs>
		<path id="SVGID_28_" d="M83.888,22.128l-22.08,16.01c-0.468,0.352-0.586,1.055-0.234,1.524c0.352,0.499,1.056,0.617,1.524,0.264
			l22.081-16.01c0.498-0.352,0.586-1.055,0.234-1.554c-0.212-0.286-0.543-0.439-0.883-0.439
			C84.308,21.924,84.084,21.989,83.888,22.128"/>
	</defs>
	<clipPath id="SVGID_29_">
		<use xlink:href="#SVGID_28_"  overflow="visible"/>
	</clipPath>
	
		<linearGradient id="SVGID_30_" gradientUnits="userSpaceOnUse" x1="-748.3789" y1="1057.3906" x2="-747.8971" y2="1057.3906" gradientTransform="matrix(-238.8965 173.6472 173.6472 238.8965 -362275.9375 -122657.1563)">
		<stop  offset="0" style="stop-color:#70CDDD"/>
		<stop  offset="1" style="stop-color:#408BCA"/>
	</linearGradient>
	<polygon clip-path="url(#SVGID_29_)" fill="url(#SVGID_30_)" points="94.495,33.934 69.706,51.951 52.492,28.268 77.28,10.25 	"/>
</g>
<g>
	<defs>
		<path id="SVGID_31_" d="M72.187,17.994l9.267-6.451l22.226,15.482L70.517,50.16L37.353,27.025l22.226-15.482l9.266,6.451
			c0.499,0.352,1.085,0.527,1.671,0.527C71.104,18.521,71.689,18.346,72.187,17.994 M59.579,5.033c-0.292,0-0.615,0.059-0.909,0.147
			c-0.117,0.029-0.234,0.116-0.381,0.176c-0.117,0.059-0.264,0.118-0.381,0.205l-0.059,0.03L30.55,24.621
			c-0.763,0.557-1.232,1.438-1.232,2.405c0,0.966,0.469,1.847,1.232,2.404l38.294,26.713c0.997,0.703,2.347,0.703,3.342,0
			l38.297-26.713c0.792-0.557,1.26-1.438,1.26-2.404c0-0.967-0.469-1.848-1.26-2.405L83.213,5.59h-0.03l-0.057-0.03
			c-0.118-0.087-0.264-0.146-0.382-0.205c-0.117-0.06-0.234-0.146-0.381-0.176c-0.292-0.088-0.586-0.147-0.909-0.147H59.579z"/>
	</defs>
	<clipPath id="SVGID_32_">
		<use xlink:href="#SVGID_31_"  overflow="visible"/>
	</clipPath>
	
		<linearGradient id="SVGID_33_" gradientUnits="userSpaceOnUse" x1="-748.3794" y1="1057.4189" x2="-747.8959" y2="1057.4189" gradientTransform="matrix(-238.8965 173.6472 173.6472 238.8965 -362282 -122665.6563)">
		<stop  offset="0" style="stop-color:#70CDDD"/>
		<stop  offset="1" style="stop-color:#408BCA"/>
	</linearGradient>
	<polygon clip-path="url(#SVGID_32_)" fill="url(#SVGID_33_)" points="136.387,38.934 57.813,96.048 4.676,22.944 83.25,-34.169 	
		"/>
</g>
<g>
	<path fill="#414042" stroke="#414042" stroke-width="3" stroke-miterlimit="10" d="M146.869,67.488h-16.459V21.374h16.459
		c7.507,0,12.483,2.977,14.927,8.93c1.421,3.421,2.132,7.908,2.132,13.461c0,11.596-2.888,18.903-8.663,21.925
		C152.955,66.889,150.156,67.488,146.869,67.488z M158.664,43.765c0-8.84-1.978-14.349-5.931-16.526
		c-1.599-0.888-3.555-1.333-5.864-1.333H135.54v37.052h11.329C154.732,62.957,158.664,56.56,158.664,43.765z"/>
	<path fill="#414042" stroke="#414042" stroke-width="3" stroke-miterlimit="10" d="M181.521,67.488V21.374h5.131v46.114H181.521z"
		/>
	<path fill="#414042" stroke="#414042" stroke-width="3" stroke-miterlimit="10" d="M224.302,48.496v-4.598h12.728v22.658
		c-5.598,1.065-10.596,1.599-14.994,1.599c-6.708,0-11.362-1.933-13.961-5.797c-2.599-3.865-3.898-9.83-3.898-17.893
		s1.299-14.038,3.898-17.926c2.599-3.887,7.208-5.831,13.828-5.831c4.132,0,8.418,0.445,12.861,1.333l2.266,0.4l-0.2,4.265
		c-5.509-0.933-10.285-1.399-14.328-1.399c-5.109,0-8.553,1.478-10.329,4.432c-1.777,2.955-2.666,7.863-2.666,14.727
		s0.888,11.773,2.666,14.727c1.776,2.955,5.198,4.432,10.263,4.432c3.109,0,6.286-0.311,9.529-0.933V48.496H224.302z"/>
	<path fill="#414042" stroke="#414042" stroke-width="3" stroke-miterlimit="10" d="M255.222,67.488V21.374h5.132v46.114H255.222z"
		/>
</g>
<g>
	<path fill="#414042" stroke="#414042" stroke-width="3" stroke-miterlimit="10" d="M311.409,67.488h-16.46V21.374h16.46
		c7.508,0,12.483,2.977,14.928,8.93c1.421,3.421,2.132,7.908,2.132,13.461c0,11.596-2.888,18.903-8.663,21.925
		C317.495,66.889,314.696,67.488,311.409,67.488z M323.204,43.765c0-8.84-1.977-14.349-5.931-16.526
		c-1.6-0.888-3.555-1.333-5.864-1.333h-11.328v37.052h11.328C319.272,62.957,323.204,56.56,323.204,43.765z"/>
	<path fill="#414042" stroke="#414042" stroke-width="3" stroke-miterlimit="10" d="M380.646,44.764
		c0,8.219-1.311,14.172-3.932,17.86c-2.622,3.688-7.387,5.53-14.294,5.53c-6.909,0-11.674-1.888-14.294-5.664
		c-2.622-3.775-3.932-9.718-3.932-17.826c0-8.107,1.332-14.127,3.998-18.06c2.665-3.932,7.396-5.897,14.194-5.897
		c6.797,0,11.539,1.956,14.228,5.864C379.303,30.482,380.646,36.546,380.646,44.764z M349.459,44.631
		c0,6.754,0.889,11.606,2.666,14.561c1.776,2.955,5.208,4.432,10.296,4.432c5.086,0,8.507-1.443,10.263-4.331
		c1.754-2.888,2.632-7.73,2.632-14.528c0-6.797-0.911-11.75-2.732-14.86c-1.822-3.109-5.231-4.665-10.229-4.665
		c-4.998,0-8.396,1.544-10.196,4.631C350.359,32.959,349.459,37.878,349.459,44.631z"/>
	<path fill="#414042" stroke="#414042" stroke-width="3" stroke-miterlimit="10" d="M426.027,66.755
		c-4.576,0.934-8.687,1.399-12.328,1.399c-3.644,0-6.587-0.499-8.83-1.499s-3.977-2.554-5.197-4.665
		c-1.223-2.109-2.066-4.531-2.532-7.264c-0.467-2.731-0.7-6.141-0.7-10.229c0-4.086,0.233-7.519,0.7-10.295
		c0.466-2.776,1.31-5.231,2.532-7.364c1.221-2.132,2.942-3.687,5.164-4.665c2.221-0.977,5.108-1.466,8.663-1.466
		c3.554,0,7.73,0.489,12.528,1.466l-0.2,4.332c-4.487-0.8-8.486-1.2-11.995-1.2c-4.888,0-8.119,1.456-9.695,4.365
		c-1.578,2.911-2.366,7.875-2.366,14.894c0,3.51,0.144,6.331,0.434,8.463c0.288,2.133,0.854,4.055,1.699,5.765
		c0.843,1.711,2.076,2.932,3.698,3.665c1.621,0.733,3.998,1.1,7.131,1.1c3.132,0,6.83-0.4,11.095-1.199L426.027,66.755z"/>
	<path fill="#414042" stroke="#414042" stroke-width="3" stroke-miterlimit="10" d="M455.281,25.172c-6.664,0-9.996,2.51-9.996,7.53
		c0,2.799,0.767,4.721,2.299,5.764c1.533,1.044,4.643,2.089,9.33,3.132c4.687,1.044,8.007,2.399,9.962,4.065s2.933,4.41,2.933,8.229
		c0,9.463-4.909,14.194-14.728,14.194c-3.243,0-7.309-0.378-12.195-1.133l-2.398-0.333l0.533-4.265
		c6.041,0.799,10.639,1.199,13.794,1.199c6.574,0,9.862-3.087,9.862-9.263c0-2.487-0.723-4.275-2.165-5.365
		c-1.444-1.088-4.144-2.009-8.097-2.766c-5.198-1.11-8.886-2.542-11.063-4.298c-2.177-1.755-3.266-4.698-3.266-8.83
		c0-8.263,4.953-12.395,14.861-12.395c3.242,0,7.13,0.333,11.661,1l2.266,0.333l-0.466,4.332
		C462.233,25.55,457.857,25.172,455.281,25.172z"/>
</g>
</svg>
