<?xml version="1.0" encoding="utf-8"?>
<!-- Generator: Adobe Illustrator 16.0.0, SVG Export Plug-In . SVG Version: 6.00 Build 0)  -->
<!DOCTYPE svg PUBLIC "-//W3C//DTD SVG 1.1//EN" "http://www.w3.org/Graphics/SVG/1.1/DTD/svg11.dtd">
<svg version="1.1" id="Layer_1" xmlns="http://www.w3.org/2000/svg" xmlns:xlink="http://www.w3.org/1999/xlink" x="0px" y="0px"
	 width="400px" height="90px" viewBox="0 0 400 90" enable-background="new 0 0 400 90" xml:space="preserve">
<g>
	<defs>
		<path id="SVGID_1_" d="M82.626,40.471L46.021,66.003L9.417,40.471c-1.329-0.926-3.157-0.6-4.084,0.727
			c-0.926,1.329-0.6,3.156,0.729,4.083l38.282,26.701c1.009,0.705,2.345,0.704,3.355,0l38.282-26.701
			c1.329-0.927,1.654-2.754,0.727-4.083c-0.569-0.816-1.481-1.254-2.407-1.255C83.721,39.942,83.136,40.115,82.626,40.471"/>
	</defs>
	<clipPath id="SVGID_2_">
		<use xlink:href="#SVGID_1_"  overflow="visible"/>
	</clipPath>
	
		<linearGradient id="SVGID_3_" gradientUnits="userSpaceOnUse" x1="-795.439" y1="1057.4492" x2="-794.9558" y2="1057.4492" gradientTransform="matrix(-238.8965 173.6472 173.6472 238.8965 -373542.5 -114484.2344)">
		<stop  offset="0" style="stop-color:#70CDDD"/>
		<stop  offset="1" style="stop-color:#408BCA"/>
	</linearGradient>
	<polygon clip-path="url(#SVGID_2_)" fill="url(#SVGID_3_)" points="103.397,61.23 33.179,112.271 -11.355,51.002 58.864,-0.038 	
		"/>
</g>
<g>
	<defs>
		<path id="SVGID_4_" d="M82.626,55.076L46.021,80.607L9.417,55.076c-1.329-0.927-3.157-0.602-4.084,0.727
			c-0.926,1.328-0.6,3.156,0.729,4.083l38.282,26.701c1.009,0.703,2.345,0.703,3.355,0l38.282-26.701
			c1.329-0.927,1.654-2.755,0.727-4.083c-0.569-0.817-1.481-1.255-2.407-1.255C83.721,54.548,83.136,54.718,82.626,55.076"/>
	</defs>
	<clipPath id="SVGID_5_">
		<use xlink:href="#SVGID_4_"  overflow="visible"/>
	</clipPath>
	
		<linearGradient id="SVGID_6_" gradientUnits="userSpaceOnUse" x1="-795.4395" y1="1057.4063" x2="-794.9563" y2="1057.4063" gradientTransform="matrix(-238.8965 173.6472 173.6472 238.8965 -373528.125 -114464.2344)">
		<stop  offset="0" style="stop-color:#70CDDD"/>
		<stop  offset="1" style="stop-color:#408BCA"/>
	</linearGradient>
	<polygon clip-path="url(#SVGID_5_)" fill="url(#SVGID_6_)" points="103.397,75.834 33.179,126.874 -11.355,65.606 58.864,14.565 	
		"/>
</g>
<g>
	<defs>
		<path id="SVGID_7_" d="M20.2,20.537L8.94,28.572c-0.498,0.352-0.616,1.026-0.263,1.525c0.351,0.498,1.055,0.615,1.553,0.264
			l11.261-8.036c0.499-0.351,0.586-1.026,0.233-1.524c-0.214-0.304-0.55-0.467-0.892-0.467C20.615,20.334,20.395,20.4,20.2,20.537"
			/>
	</defs>
	<clipPath id="SVGID_8_">
		<use xlink:href="#SVGID_7_"  overflow="visible"/>
	</clipPath>
	
		<linearGradient id="SVGID_9_" gradientUnits="userSpaceOnUse" x1="-795.3984" y1="1057.4805" x2="-794.9166" y2="1057.4805" gradientTransform="matrix(-238.8965 173.6472 173.6472 238.8965 -373573.4375 -114526.7344)">
		<stop  offset="0" style="stop-color:#70CDDD"/>
		<stop  offset="1" style="stop-color:#408BCA"/>
	</linearGradient>
	<polygon clip-path="url(#SVGID_8_)" fill="url(#SVGID_9_)" points="27.012,27.125 13.079,37.253 3.389,23.922 17.323,13.793 	"/>
</g>
<g>
	<defs>
		<path id="SVGID_10_" d="M54.667,35.122l-11.26,8.034c-0.499,0.352-0.616,1.026-0.264,1.524c0.352,0.499,1.056,0.617,1.524,0.265
			l11.26-8.036c0.499-0.351,0.616-1.024,0.264-1.524c-0.215-0.305-0.55-0.466-0.891-0.466
			C55.081,34.919,54.861,34.984,54.667,35.122"/>
	</defs>
	<clipPath id="SVGID_11_">
		<use xlink:href="#SVGID_10_"  overflow="visible"/>
	</clipPath>
	
		<linearGradient id="SVGID_12_" gradientUnits="userSpaceOnUse" x1="-795.4385" y1="1057.4131" x2="-794.9567" y2="1057.4131" gradientTransform="matrix(-238.8965 173.6472 173.6472 238.8965 -373542.6875 -114484.2344)">
		<stop  offset="0" style="stop-color:#70CDDD"/>
		<stop  offset="1" style="stop-color:#408BCA"/>
	</linearGradient>
	<polygon clip-path="url(#SVGID_11_)" fill="url(#SVGID_12_)" points="61.479,41.709 47.545,51.836 37.855,38.506 51.79,28.378 	"/>
</g>
<g>
	<defs>
		<path id="SVGID_13_" d="M53.611,19.14l-22.08,16.01c-0.47,0.352-0.587,1.056-0.235,1.525c0.352,0.499,1.056,0.615,1.554,0.264
			l22.052-16.01c0.499-0.381,0.615-1.056,0.234-1.555c-0.208-0.296-0.532-0.447-0.865-0.447
			C54.044,18.928,53.813,18.998,53.611,19.14"/>
	</defs>
	<clipPath id="SVGID_14_">
		<use xlink:href="#SVGID_13_"  overflow="visible"/>
	</clipPath>
	
		<linearGradient id="SVGID_15_" gradientUnits="userSpaceOnUse" x1="-795.4395" y1="1057.4609" x2="-794.9554" y2="1057.4609" gradientTransform="matrix(-238.8965 173.6472 173.6472 238.8965 -373559.125 -114506.7344)">
		<stop  offset="0" style="stop-color:#70CDDD"/>
		<stop  offset="1" style="stop-color:#408BCA"/>
	</linearGradient>
	<polygon clip-path="url(#SVGID_14_)" fill="url(#SVGID_15_)" points="64.251,30.942 39.439,48.978 22.21,25.276 47.022,7.241 	"/>
</g>
<g>
	<defs>
		<path id="SVGID_16_" d="M59.388,23.128l-22.08,16.01c-0.468,0.352-0.586,1.055-0.234,1.524c0.352,0.499,1.056,0.617,1.524,0.264
			l22.081-16.01c0.498-0.352,0.586-1.055,0.234-1.554c-0.212-0.286-0.543-0.439-0.883-0.439
			C59.808,22.924,59.584,22.989,59.388,23.128"/>
	</defs>
	<clipPath id="SVGID_17_">
		<use xlink:href="#SVGID_16_"  overflow="visible"/>
	</clipPath>
	
		<linearGradient id="SVGID_18_" gradientUnits="userSpaceOnUse" x1="-795.4399" y1="1057.4375" x2="-794.9559" y2="1057.4375" gradientTransform="matrix(-238.8965 173.6472 173.6472 238.8965 -373551.0625 -114495.7344)">
		<stop  offset="0" style="stop-color:#70CDDD"/>
		<stop  offset="1" style="stop-color:#408BCA"/>
	</linearGradient>
	<polygon clip-path="url(#SVGID_17_)" fill="url(#SVGID_18_)" points="69.995,34.934 45.206,52.951 27.992,29.268 52.78,11.25 	"/>
</g>
<g>
	<defs>
		<path id="SVGID_19_" d="M20.2,20.537L8.94,28.572c-0.498,0.352-0.616,1.026-0.263,1.525c0.351,0.498,1.055,0.615,1.553,0.264
			l11.261-8.036c0.499-0.351,0.586-1.026,0.233-1.524c-0.214-0.304-0.55-0.467-0.892-0.467C20.615,20.334,20.395,20.4,20.2,20.537"
			/>
	</defs>
	<clipPath id="SVGID_20_">
		<use xlink:href="#SVGID_19_"  overflow="visible"/>
	</clipPath>
	
		<linearGradient id="SVGID_21_" gradientUnits="userSpaceOnUse" x1="-795.3984" y1="1057.4805" x2="-794.9166" y2="1057.4805" gradientTransform="matrix(-238.8965 173.6472 173.6472 238.8965 -373573.4375 -114526.7344)">
		<stop  offset="0" style="stop-color:#70CDDD"/>
		<stop  offset="1" style="stop-color:#408BCA"/>
	</linearGradient>
	<polygon clip-path="url(#SVGID_20_)" fill="url(#SVGID_21_)" points="27.012,27.125 13.079,37.253 3.389,23.922 17.323,13.793 	"/>
</g>
<g>
	<defs>
		<path id="SVGID_22_" d="M53.611,19.14l-22.08,16.01c-0.47,0.352-0.587,1.056-0.235,1.525c0.352,0.499,1.056,0.615,1.554,0.264
			l22.052-16.01c0.499-0.381,0.615-1.056,0.234-1.555c-0.208-0.296-0.532-0.447-0.865-0.447
			C54.044,18.928,53.813,18.998,53.611,19.14"/>
	</defs>
	<clipPath id="SVGID_23_">
		<use xlink:href="#SVGID_22_"  overflow="visible"/>
	</clipPath>
	
		<linearGradient id="SVGID_24_" gradientUnits="userSpaceOnUse" x1="-795.4395" y1="1057.4609" x2="-794.9554" y2="1057.4609" gradientTransform="matrix(-238.8965 173.6472 173.6472 238.8965 -373559.125 -114506.7344)">
		<stop  offset="0" style="stop-color:#70CDDD"/>
		<stop  offset="1" style="stop-color:#408BCA"/>
	</linearGradient>
	<polygon clip-path="url(#SVGID_23_)" fill="url(#SVGID_24_)" points="64.251,30.942 39.439,48.978 22.21,25.276 47.022,7.241 	"/>
</g>
<g>
	<defs>
		<path id="SVGID_25_" d="M54.667,35.122l-11.26,8.034c-0.499,0.352-0.616,1.026-0.264,1.524c0.352,0.499,1.056,0.617,1.524,0.265
			l11.26-8.036c0.499-0.351,0.616-1.024,0.264-1.524c-0.215-0.305-0.55-0.466-0.891-0.466
			C55.081,34.919,54.861,34.984,54.667,35.122"/>
	</defs>
	<clipPath id="SVGID_26_">
		<use xlink:href="#SVGID_25_"  overflow="visible"/>
	</clipPath>
	
		<linearGradient id="SVGID_27_" gradientUnits="userSpaceOnUse" x1="-795.4385" y1="1057.4131" x2="-794.9567" y2="1057.4131" gradientTransform="matrix(-238.8965 173.6472 173.6472 238.8965 -373542.6875 -114484.2344)">
		<stop  offset="0" style="stop-color:#70CDDD"/>
		<stop  offset="1" style="stop-color:#408BCA"/>
	</linearGradient>
	<polygon clip-path="url(#SVGID_26_)" fill="url(#SVGID_27_)" points="61.479,41.709 47.545,51.836 37.855,38.506 51.79,28.378 	"/>
</g>
<g>
	<defs>
		<path id="SVGID_28_" d="M59.388,23.128l-22.08,16.01c-0.468,0.352-0.586,1.055-0.234,1.524c0.352,0.499,1.056,0.617,1.524,0.264
			l22.081-16.01c0.498-0.352,0.586-1.055,0.234-1.554c-0.212-0.286-0.543-0.439-0.883-0.439
			C59.808,22.924,59.584,22.989,59.388,23.128"/>
	</defs>
	<clipPath id="SVGID_29_">
		<use xlink:href="#SVGID_28_"  overflow="visible"/>
	</clipPath>
	
		<linearGradient id="SVGID_30_" gradientUnits="userSpaceOnUse" x1="-795.4399" y1="1057.4375" x2="-794.9559" y2="1057.4375" gradientTransform="matrix(-238.8965 173.6472 173.6472 238.8965 -373551.0625 -114495.7344)">
		<stop  offset="0" style="stop-color:#70CDDD"/>
		<stop  offset="1" style="stop-color:#408BCA"/>
	</linearGradient>
	<polygon clip-path="url(#SVGID_29_)" fill="url(#SVGID_30_)" points="69.995,34.934 45.206,52.951 27.992,29.268 52.78,11.25 	"/>
</g>
<g>
	<defs>
		<path id="SVGID_31_" d="M47.687,18.994l9.267-6.451L79.18,28.025L46.017,51.16L12.853,28.025l22.226-15.482l9.266,6.451
			c0.499,0.352,1.085,0.527,1.671,0.527C46.604,19.521,47.189,19.346,47.687,18.994 M35.079,6.033c-0.292,0-0.615,0.059-0.909,0.147
			c-0.117,0.029-0.234,0.116-0.381,0.176c-0.117,0.059-0.264,0.118-0.381,0.205l-0.059,0.03L6.05,25.621
			c-0.763,0.557-1.232,1.438-1.232,2.405c0,0.966,0.469,1.847,1.232,2.404l38.294,26.713c0.997,0.703,2.347,0.703,3.342,0
			l38.297-26.713c0.792-0.557,1.26-1.438,1.26-2.404c0-0.967-0.469-1.848-1.26-2.405L58.713,6.59h-0.03l-0.057-0.03
			c-0.118-0.087-0.264-0.146-0.382-0.205c-0.117-0.06-0.234-0.146-0.381-0.176c-0.292-0.088-0.586-0.147-0.909-0.147H35.079z"/>
	</defs>
	<clipPath id="SVGID_32_">
		<use xlink:href="#SVGID_31_"  overflow="visible"/>
	</clipPath>
	
		<linearGradient id="SVGID_33_" gradientUnits="userSpaceOnUse" x1="-795.439" y1="1057.4668" x2="-794.9562" y2="1057.4668" gradientTransform="matrix(-238.8965 173.6472 173.6472 238.8965 -373557.125 -114504.2344)">
		<stop  offset="0" style="stop-color:#70CDDD"/>
		<stop  offset="1" style="stop-color:#408BCA"/>
	</linearGradient>
	<polygon clip-path="url(#SVGID_32_)" fill="url(#SVGID_33_)" points="111.887,39.934 33.313,97.048 -19.824,23.944 58.75,-33.169 	
		"/>
</g>
<g>
	<path fill="#414042" stroke="#414042" stroke-width="3" stroke-miterlimit="10" d="M108.169,31.202v-3.2h21.178v4.235
		l-17.036,24.19v0.94h17.036v3.247h-21.178v-4.188l16.989-24.19v-1.036H108.169z"/>
	<path fill="#414042" stroke="#414042" stroke-width="3" stroke-miterlimit="10" d="M141.111,60.568V28.002h3.624v32.566H141.111z"
		/>
	<path fill="#414042" stroke="#414042" stroke-width="3" stroke-miterlimit="10" d="M170.336,49.603h-8.283v10.965h-3.624V28.002
		h11.907c3.545,0,6.165,0.863,7.859,2.588c1.694,1.726,2.542,4.361,2.542,7.906C180.736,45.901,177.269,49.603,170.336,49.603z
		 M162.053,46.403h8.235c4.486,0,6.73-2.635,6.73-7.906c0-2.509-0.534-4.353-1.6-5.529c-1.067-1.177-2.777-1.765-5.13-1.765h-8.235
		V46.403z"/>
	<path fill="#414042" stroke="#414042" stroke-width="3" stroke-miterlimit="10" d="M203.984,49.603h-8.283v10.965h-3.624V28.002
		h11.907c3.545,0,6.165,0.863,7.859,2.588c1.694,1.726,2.542,4.361,2.542,7.906C214.385,45.901,210.917,49.603,203.984,49.603z
		 M195.701,46.403h8.235c4.486,0,6.729-2.635,6.729-7.906c0-2.509-0.533-4.353-1.6-5.529c-1.066-1.177-2.777-1.765-5.13-1.765
		h-8.235V46.403z"/>
	<path fill="#414042" stroke="#414042" stroke-width="3" stroke-miterlimit="10" d="M235.279,60.568h-3.624V46.874l-10.4-18.871
		h4.095l8.094,15.248l8.095-15.248h4.094l-10.353,18.871V60.568z"/>
</g>
<g>
	<path fill="#414042" stroke="#414042" stroke-width="3" stroke-miterlimit="10" d="M281.175,60.568h-11.624V28.002h11.624
		c5.302,0,8.816,2.102,10.542,6.306c1.004,2.416,1.506,5.584,1.506,9.506c0,8.189-2.04,13.35-6.118,15.483
		C285.473,60.145,283.496,60.568,281.175,60.568z M289.505,43.814c0-6.243-1.396-10.133-4.188-11.671
		c-1.13-0.627-2.511-0.941-4.142-0.941h-8v26.166h8C286.729,57.368,289.505,52.851,289.505,43.814z"/>
	<path fill="#414042" stroke="#414042" stroke-width="3" stroke-miterlimit="10" d="M330.07,44.521
		c0,5.805-0.926,10.009-2.776,12.612c-1.852,2.604-5.217,3.906-10.095,3.906c-4.879,0-8.244-1.333-10.095-4
		c-1.852-2.667-2.776-6.863-2.776-12.589s0.941-9.977,2.823-12.754c1.883-2.776,5.224-4.165,10.024-4.165
		c4.8,0,8.148,1.381,10.047,4.141C329.121,34.434,330.07,38.717,330.07,44.521z M308.046,44.426c0,4.77,0.627,8.197,1.882,10.283
		s3.679,3.129,7.271,3.129c3.592,0,6.008-1.019,7.247-3.059c1.239-2.039,1.859-5.459,1.859-10.259s-0.644-8.298-1.93-10.495
		c-1.287-2.195-3.694-3.294-7.224-3.294c-3.53,0-5.93,1.09-7.2,3.271C308.681,36.184,308.046,39.658,308.046,44.426z"/>
	<path fill="#414042" stroke="#414042" stroke-width="3" stroke-miterlimit="10" d="M362.119,60.051
		c-3.232,0.659-6.135,0.988-8.706,0.988c-2.573,0-4.652-0.354-6.236-1.059c-1.584-0.706-2.808-1.805-3.671-3.295
		c-0.863-1.489-1.458-3.2-1.788-5.129c-0.329-1.929-0.494-4.337-0.494-7.224c0-2.886,0.165-5.31,0.494-7.271
		c0.33-1.96,0.925-3.694,1.788-5.2s2.078-2.604,3.647-3.294c1.568-0.689,3.607-1.035,6.118-1.035c2.51,0,5.459,0.346,8.848,1.035
		l-0.142,3.059c-3.169-0.565-5.993-0.847-8.471-0.847c-3.452,0-5.734,1.028-6.848,3.083c-1.114,2.055-1.671,5.561-1.671,10.518
		c0,2.479,0.102,4.471,0.307,5.977c0.203,1.506,0.604,2.864,1.2,4.071c0.595,1.208,1.466,2.071,2.611,2.589
		c1.145,0.518,2.824,0.776,5.035,0.776c2.212,0,4.824-0.282,7.836-0.847L362.119,60.051z"/>
	<path fill="#414042" stroke="#414042" stroke-width="3" stroke-miterlimit="10" d="M382.778,30.685c-4.707,0-7.06,1.773-7.06,5.318
		c0,1.977,0.541,3.334,1.624,4.071c1.082,0.738,3.277,1.475,6.588,2.212c3.31,0.738,5.655,1.694,7.036,2.871
		c1.38,1.177,2.07,3.114,2.07,5.812c0,6.683-3.467,10.024-10.4,10.024c-2.291,0-5.161-0.268-8.612-0.801l-1.694-0.234l0.377-3.012
		c4.267,0.564,7.514,0.847,9.741,0.847c4.643,0,6.965-2.181,6.965-6.542c0-1.757-0.51-3.02-1.529-3.789
		c-1.02-0.769-2.926-1.419-5.718-1.953c-3.671-0.784-6.275-1.795-7.813-3.035c-1.537-1.239-2.306-3.318-2.306-6.236
		c0-5.835,3.498-8.753,10.495-8.753c2.289,0,5.035,0.235,8.235,0.706l1.6,0.235l-0.329,3.059
		C387.688,30.952,384.597,30.685,382.778,30.685z"/>
</g>
</svg>
