<?xml version="1.0" encoding="utf-8"?>
<!-- Generator: Adobe Illustrator 16.0.0, SVG Export Plug-In . SVG Version: 6.00 Build 0)  -->
<!DOCTYPE svg PUBLIC "-//W3C//DTD SVG 1.1//EN" "http://www.w3.org/Graphics/SVG/1.1/DTD/svg11.dtd">
<svg version="1.1" id="Layer_1" xmlns="http://www.w3.org/2000/svg" xmlns:xlink="http://www.w3.org/1999/xlink" x="0px" y="0px"
	 width="500px" height="90px" viewBox="0 0 500 90" enable-background="new 0 0 500 90" xml:space="preserve">
<g>
	<defs>
		<path id="SVGID_1_" d="M102.126,39.471L65.521,65.003L28.917,39.471c-1.329-0.926-3.157-0.6-4.084,0.727
			c-0.926,1.329-0.6,3.156,0.729,4.083l38.282,26.701c1.009,0.705,2.345,0.704,3.355,0l38.282-26.701
			c1.329-0.927,1.654-2.754,0.727-4.083c-0.569-0.816-1.481-1.254-2.407-1.255C103.221,38.942,102.636,39.115,102.126,39.471"/>
	</defs>
	<clipPath id="SVGID_2_">
		<use xlink:href="#SVGID_1_"  overflow="visible"/>
	</clipPath>
	
		<linearGradient id="SVGID_3_" gradientUnits="userSpaceOnUse" x1="-748.3657" y1="1057.3906" x2="-747.8826" y2="1057.3906" gradientTransform="matrix(-238.8965 173.6472 173.6472 238.8965 -362267.375 -122645.6563)">
		<stop  offset="0" style="stop-color:#70CDDD"/>
		<stop  offset="1" style="stop-color:#408BCA"/>
	</linearGradient>
	<polygon clip-path="url(#SVGID_2_)" fill="url(#SVGID_3_)" points="122.897,60.23 52.679,111.271 8.145,50.002 78.364,-1.038 	"/>
</g>
<g>
	<defs>
		<path id="SVGID_4_" d="M102.126,54.076L65.521,79.607L28.917,54.076c-1.329-0.927-3.157-0.602-4.084,0.727
			c-0.926,1.328-0.6,3.156,0.729,4.083l38.282,26.701c1.009,0.703,2.345,0.703,3.355,0l38.282-26.701
			c1.329-0.927,1.654-2.755,0.727-4.083c-0.569-0.817-1.481-1.255-2.407-1.255C103.221,53.548,102.636,53.718,102.126,54.076"/>
	</defs>
	<clipPath id="SVGID_5_">
		<use xlink:href="#SVGID_4_"  overflow="visible"/>
	</clipPath>
	
		<linearGradient id="SVGID_6_" gradientUnits="userSpaceOnUse" x1="-748.3662" y1="1057.3477" x2="-747.8831" y2="1057.3477" gradientTransform="matrix(-238.8965 173.6472 173.6472 238.8965 -362253 -122625.6563)">
		<stop  offset="0" style="stop-color:#70CDDD"/>
		<stop  offset="1" style="stop-color:#408BCA"/>
	</linearGradient>
	<polygon clip-path="url(#SVGID_5_)" fill="url(#SVGID_6_)" points="122.897,74.834 52.679,125.874 8.145,64.606 78.364,13.565 	"/>
</g>
<g>
	<defs>
		<path id="SVGID_7_" d="M39.7,19.537l-11.26,8.035c-0.498,0.352-0.616,1.026-0.263,1.525c0.351,0.498,1.055,0.615,1.553,0.264
			l11.261-8.036c0.499-0.351,0.586-1.026,0.233-1.524c-0.214-0.304-0.55-0.467-0.892-0.467C40.115,19.334,39.895,19.4,39.7,19.537"
			/>
	</defs>
	<clipPath id="SVGID_8_">
		<use xlink:href="#SVGID_7_"  overflow="visible"/>
	</clipPath>
	
		<linearGradient id="SVGID_9_" gradientUnits="userSpaceOnUse" x1="-748.3252" y1="1057.4238" x2="-747.8434" y2="1057.4238" gradientTransform="matrix(-238.8965 173.6472 173.6472 238.8965 -362298.3125 -122688.1563)">
		<stop  offset="0" style="stop-color:#70CDDD"/>
		<stop  offset="1" style="stop-color:#408BCA"/>
	</linearGradient>
	<polygon clip-path="url(#SVGID_8_)" fill="url(#SVGID_9_)" points="46.512,26.125 32.579,36.253 22.889,22.922 36.823,12.793 	"/>
</g>
<g>
	<defs>
		<path id="SVGID_10_" d="M74.167,34.122l-11.26,8.034c-0.499,0.352-0.616,1.026-0.264,1.524c0.352,0.499,1.056,0.617,1.524,0.265
			l11.26-8.036c0.499-0.351,0.616-1.024,0.264-1.524c-0.215-0.305-0.55-0.466-0.891-0.466
			C74.581,33.919,74.361,33.984,74.167,34.122"/>
	</defs>
	<clipPath id="SVGID_11_">
		<use xlink:href="#SVGID_10_"  overflow="visible"/>
	</clipPath>
	
		<linearGradient id="SVGID_12_" gradientUnits="userSpaceOnUse" x1="-748.3652" y1="1057.3555" x2="-747.8834" y2="1057.3555" gradientTransform="matrix(-238.8965 173.6472 173.6472 238.8965 -362267.5625 -122645.6563)">
		<stop  offset="0" style="stop-color:#70CDDD"/>
		<stop  offset="1" style="stop-color:#408BCA"/>
	</linearGradient>
	<polygon clip-path="url(#SVGID_11_)" fill="url(#SVGID_12_)" points="80.979,40.709 67.045,50.836 57.355,37.506 71.29,27.378 	"/>
</g>
<g>
	<defs>
		<path id="SVGID_13_" d="M73.111,18.14l-22.08,16.01c-0.47,0.352-0.587,1.056-0.235,1.525c0.352,0.499,1.056,0.615,1.554,0.264
			l22.052-16.01c0.499-0.381,0.615-1.056,0.234-1.555c-0.208-0.296-0.532-0.447-0.865-0.447
			C73.544,17.928,73.313,17.998,73.111,18.14"/>
	</defs>
	<clipPath id="SVGID_14_">
		<use xlink:href="#SVGID_13_"  overflow="visible"/>
	</clipPath>
	
		<linearGradient id="SVGID_15_" gradientUnits="userSpaceOnUse" x1="-748.3652" y1="1057.4043" x2="-747.8834" y2="1057.4043" gradientTransform="matrix(-238.8965 173.6472 173.6472 238.8965 -362284 -122668.1563)">
		<stop  offset="0" style="stop-color:#70CDDD"/>
		<stop  offset="1" style="stop-color:#408BCA"/>
	</linearGradient>
	<polygon clip-path="url(#SVGID_14_)" fill="url(#SVGID_15_)" points="83.751,29.942 58.939,47.978 41.71,24.276 66.522,6.241 	"/>
</g>
<g>
	<defs>
		<path id="SVGID_16_" d="M78.888,22.128l-22.08,16.01c-0.468,0.352-0.586,1.055-0.234,1.524c0.352,0.499,1.056,0.617,1.524,0.264
			l22.081-16.01c0.498-0.352,0.586-1.055,0.234-1.554c-0.212-0.286-0.543-0.439-0.883-0.439
			C79.308,21.924,79.084,21.989,78.888,22.128"/>
	</defs>
	<clipPath id="SVGID_17_">
		<use xlink:href="#SVGID_16_"  overflow="visible"/>
	</clipPath>
	
		<linearGradient id="SVGID_18_" gradientUnits="userSpaceOnUse" x1="-748.3652" y1="1057.3809" x2="-747.8834" y2="1057.3809" gradientTransform="matrix(-238.8965 173.6472 173.6472 238.8965 -362275.9375 -122657.1563)">
		<stop  offset="0" style="stop-color:#70CDDD"/>
		<stop  offset="1" style="stop-color:#408BCA"/>
	</linearGradient>
	<polygon clip-path="url(#SVGID_17_)" fill="url(#SVGID_18_)" points="89.495,33.934 64.706,51.951 47.492,28.268 72.28,10.25 	"/>
</g>
<g>
	<defs>
		<path id="SVGID_19_" d="M39.7,19.537l-11.26,8.035c-0.498,0.352-0.616,1.026-0.263,1.525c0.351,0.498,1.055,0.615,1.553,0.264
			l11.261-8.036c0.499-0.351,0.586-1.026,0.233-1.524c-0.214-0.304-0.55-0.467-0.892-0.467C40.115,19.334,39.895,19.4,39.7,19.537"
			/>
	</defs>
	<clipPath id="SVGID_20_">
		<use xlink:href="#SVGID_19_"  overflow="visible"/>
	</clipPath>
	
		<linearGradient id="SVGID_21_" gradientUnits="userSpaceOnUse" x1="-748.3252" y1="1057.4238" x2="-747.8434" y2="1057.4238" gradientTransform="matrix(-238.8965 173.6472 173.6472 238.8965 -362298.3125 -122688.1563)">
		<stop  offset="0" style="stop-color:#70CDDD"/>
		<stop  offset="1" style="stop-color:#408BCA"/>
	</linearGradient>
	<polygon clip-path="url(#SVGID_20_)" fill="url(#SVGID_21_)" points="46.512,26.125 32.579,36.253 22.889,22.922 36.823,12.793 	
		"/>
</g>
<g>
	<defs>
		<path id="SVGID_22_" d="M73.111,18.14l-22.08,16.01c-0.47,0.352-0.587,1.056-0.235,1.525c0.352,0.499,1.056,0.615,1.554,0.264
			l22.052-16.01c0.499-0.381,0.615-1.056,0.234-1.555c-0.208-0.296-0.532-0.447-0.865-0.447
			C73.544,17.928,73.313,17.998,73.111,18.14"/>
	</defs>
	<clipPath id="SVGID_23_">
		<use xlink:href="#SVGID_22_"  overflow="visible"/>
	</clipPath>
	
		<linearGradient id="SVGID_24_" gradientUnits="userSpaceOnUse" x1="-748.3652" y1="1057.4043" x2="-747.8834" y2="1057.4043" gradientTransform="matrix(-238.8965 173.6472 173.6472 238.8965 -362284 -122668.1563)">
		<stop  offset="0" style="stop-color:#70CDDD"/>
		<stop  offset="1" style="stop-color:#408BCA"/>
	</linearGradient>
	<polygon clip-path="url(#SVGID_23_)" fill="url(#SVGID_24_)" points="83.751,29.942 58.939,47.978 41.71,24.276 66.522,6.241 	"/>
</g>
<g>
	<defs>
		<path id="SVGID_25_" d="M74.167,34.122l-11.26,8.034c-0.499,0.352-0.616,1.026-0.264,1.524c0.352,0.499,1.056,0.617,1.524,0.265
			l11.26-8.036c0.499-0.351,0.616-1.024,0.264-1.524c-0.215-0.305-0.55-0.466-0.891-0.466
			C74.581,33.919,74.361,33.984,74.167,34.122"/>
	</defs>
	<clipPath id="SVGID_26_">
		<use xlink:href="#SVGID_25_"  overflow="visible"/>
	</clipPath>
	
		<linearGradient id="SVGID_27_" gradientUnits="userSpaceOnUse" x1="-748.3652" y1="1057.3555" x2="-747.8834" y2="1057.3555" gradientTransform="matrix(-238.8965 173.6472 173.6472 238.8965 -362267.5625 -122645.6563)">
		<stop  offset="0" style="stop-color:#70CDDD"/>
		<stop  offset="1" style="stop-color:#408BCA"/>
	</linearGradient>
	<polygon clip-path="url(#SVGID_26_)" fill="url(#SVGID_27_)" points="80.979,40.709 67.045,50.836 57.355,37.506 71.29,27.378 	"/>
</g>
<g>
	<defs>
		<path id="SVGID_28_" d="M78.888,22.128l-22.08,16.01c-0.468,0.352-0.586,1.055-0.234,1.524c0.352,0.499,1.056,0.617,1.524,0.264
			l22.081-16.01c0.498-0.352,0.586-1.055,0.234-1.554c-0.212-0.286-0.543-0.439-0.883-0.439
			C79.308,21.924,79.084,21.989,78.888,22.128"/>
	</defs>
	<clipPath id="SVGID_29_">
		<use xlink:href="#SVGID_28_"  overflow="visible"/>
	</clipPath>
	
		<linearGradient id="SVGID_30_" gradientUnits="userSpaceOnUse" x1="-748.3652" y1="1057.3809" x2="-747.8834" y2="1057.3809" gradientTransform="matrix(-238.8965 173.6472 173.6472 238.8965 -362275.9375 -122657.1563)">
		<stop  offset="0" style="stop-color:#70CDDD"/>
		<stop  offset="1" style="stop-color:#408BCA"/>
	</linearGradient>
	<polygon clip-path="url(#SVGID_29_)" fill="url(#SVGID_30_)" points="89.495,33.934 64.706,51.951 47.492,28.268 72.28,10.25 	"/>
</g>
<g>
	<defs>
		<path id="SVGID_31_" d="M67.187,17.994l9.267-6.451L98.68,27.025L65.517,50.16L32.353,27.025l22.226-15.482l9.266,6.451
			c0.499,0.352,1.085,0.527,1.671,0.527C66.104,18.521,66.689,18.346,67.187,17.994 M54.579,5.033c-0.292,0-0.615,0.059-0.909,0.147
			c-0.117,0.029-0.234,0.116-0.381,0.176c-0.117,0.059-0.264,0.118-0.381,0.205l-0.059,0.03L25.55,24.621
			c-0.763,0.557-1.232,1.438-1.232,2.405c0,0.966,0.469,1.847,1.232,2.404l38.294,26.713c0.997,0.703,2.347,0.703,3.342,0
			l38.297-26.713c0.792-0.557,1.26-1.438,1.26-2.404c0-0.967-0.469-1.848-1.26-2.405L78.213,5.59h-0.03l-0.057-0.03
			c-0.118-0.087-0.264-0.146-0.382-0.205c-0.117-0.06-0.234-0.146-0.381-0.176c-0.292-0.088-0.586-0.147-0.909-0.147H54.579z"/>
	</defs>
	<clipPath id="SVGID_32_">
		<use xlink:href="#SVGID_31_"  overflow="visible"/>
	</clipPath>
	
		<linearGradient id="SVGID_33_" gradientUnits="userSpaceOnUse" x1="-748.3657" y1="1057.4092" x2="-747.8822" y2="1057.4092" gradientTransform="matrix(-238.8965 173.6472 173.6472 238.8965 -362282 -122665.6563)">
		<stop  offset="0" style="stop-color:#70CDDD"/>
		<stop  offset="1" style="stop-color:#408BCA"/>
	</linearGradient>
	<polygon clip-path="url(#SVGID_32_)" fill="url(#SVGID_33_)" points="131.387,38.934 52.813,96.048 -0.324,22.944 78.25,-34.169 	
		"/>
</g>
<g>
	<path fill="#FFFFFF" stroke="#FFFFFF" stroke-width="3" stroke-miterlimit="10" d="M142.572,64.006h-14.567V23.194h14.567
		c6.645,0,11.048,2.635,13.211,7.903c1.258,3.028,1.887,6.999,1.887,11.914c0,10.262-2.556,16.73-7.667,19.403
		C147.958,63.475,145.481,64.006,142.572,64.006z M153.011,43.01c0-7.824-1.75-12.7-5.249-14.626c-1.416-0.786-3.146-1.18-5.19-1.18
		h-10.026v32.791h10.026C149.531,59.995,153.011,54.333,153.011,43.01z"/>
	<path fill="#FFFFFF" stroke="#FFFFFF" stroke-width="3" stroke-miterlimit="10" d="M173.239,64.006V23.194h4.541v40.812H173.239z"
		/>
	<path fill="#FFFFFF" stroke="#FFFFFF" stroke-width="3" stroke-miterlimit="10" d="M211.102,47.197v-4.069h11.265v20.053
		c-4.954,0.943-9.378,1.415-13.271,1.415c-5.937,0-10.055-1.71-12.355-5.131c-2.3-3.421-3.45-8.699-3.45-15.835
		s1.15-12.424,3.45-15.865c2.3-3.44,6.378-5.161,12.238-5.161c3.656,0,7.45,0.394,11.382,1.18l2.006,0.354l-0.177,3.774
		c-4.876-0.826-9.104-1.239-12.681-1.239c-4.521,0-7.569,1.308-9.141,3.922c-1.573,2.615-2.359,6.959-2.359,13.034
		s0.786,10.419,2.359,13.034c1.572,2.615,4.6,3.922,9.083,3.922c2.752,0,5.563-0.274,8.434-0.825V47.197H211.102z"/>
	<path fill="#FFFFFF" stroke="#FFFFFF" stroke-width="3" stroke-miterlimit="10" d="M238.466,64.006V23.194h4.542v40.812H238.466z"
		/>
</g>
<g>
	<path fill="#FFFFFF" stroke="#FFFFFF" stroke-width="3" stroke-miterlimit="10" d="M268.292,64.006V23.194h24.417v4.01h-19.875
		v15.924h16.808v4.011h-16.808v16.867H268.292z"/>
	<path fill="#FFFFFF" stroke="#FFFFFF" stroke-width="3" stroke-miterlimit="10" d="M336.528,43.895
		c0,7.274-1.16,12.543-3.479,15.806c-2.32,3.265-6.537,4.896-12.65,4.896c-6.114,0-10.331-1.671-12.65-5.013
		c-2.321-3.342-3.48-8.601-3.48-15.777c0-7.175,1.18-12.503,3.539-15.982c2.359-3.48,6.546-5.22,12.562-5.22
		s10.213,1.73,12.592,5.19C335.339,31.254,336.528,36.621,336.528,43.895z M308.927,43.777c0,5.977,0.786,10.272,2.359,12.886
		c1.572,2.615,4.609,3.922,9.112,3.922c4.501,0,7.528-1.277,9.082-3.833c1.553-2.556,2.33-6.842,2.33-12.857
		s-0.807-10.399-2.419-13.152c-1.612-2.751-4.629-4.128-9.053-4.128c-4.423,0-7.431,1.366-9.023,4.099
		C309.724,33.447,308.927,37.801,308.927,43.777z"/>
	<path fill="#FFFFFF" stroke="#FFFFFF" stroke-width="3" stroke-miterlimit="10" d="M356.58,48.377v15.629h-4.542V23.194h15.099
		c4.324,0,7.578,1.002,9.761,3.008c2.182,2.005,3.272,5.131,3.272,9.377c0,6.291-2.497,10.243-7.489,11.854l7.844,16.572h-5.014
		l-7.372-15.629H356.58z M367.195,44.367c5.544,0,8.315-2.86,8.315-8.581c0-5.721-2.792-8.582-8.374-8.582H356.58v17.163H367.195z"
		/>
	<path fill="#FFFFFF" stroke="#FFFFFF" stroke-width="3" stroke-miterlimit="10" d="M395.563,64.006V23.194h8.198l11.56,34.501
		l11.56-34.501h8.197v40.812h-4.541V28.03h-0.826l-11.854,34.501h-5.072L400.93,28.03h-0.825v35.976H395.563z"/>
	<path fill="#FFFFFF" stroke="#FFFFFF" stroke-width="3" stroke-miterlimit="10" d="M463.563,26.556
		c-5.897,0-8.847,2.222-8.847,6.664c0,2.477,0.679,4.178,2.035,5.102c1.356,0.924,4.108,1.849,8.257,2.772
		c4.147,0.924,7.086,2.123,8.817,3.598c1.729,1.475,2.595,3.903,2.595,7.284c0,8.375-4.345,12.563-13.034,12.563
		c-2.87,0-6.468-0.335-10.793-1.003l-2.123-0.295l0.472-3.774c5.347,0.708,9.416,1.062,12.209,1.062
		c5.818,0,8.729-2.732,8.729-8.198c0-2.202-0.64-3.784-1.917-4.748c-1.278-0.963-3.667-1.778-7.166-2.447
		c-4.6-0.982-7.864-2.25-9.79-3.804c-1.927-1.553-2.89-4.158-2.89-7.814c0-7.313,4.384-10.97,13.151-10.97
		c2.87,0,6.311,0.295,10.321,0.885l2.005,0.295l-0.412,3.833C469.716,26.89,465.843,26.556,463.563,26.556z"/>
</g>
</svg>
